<?xml version="1.0" standalone="yes"?>

<svg version="1.1" viewBox="0.0 0.0 754.0262467191601 534.1181102362204" fill="none" stroke="none" stroke-linecap="square" stroke-miterlimit="10" xmlns="http://www.w3.org/2000/svg" xmlns:xlink="http://www.w3.org/1999/xlink"><clipPath id="p.0"><path d="m0 0l754.02625 0l0 534.1181l-754.02625 0l0 -534.1181z" clip-rule="nonzero"></path></clipPath><g clip-path="url(#p.0)"><path fill="#000000" fill-opacity="0.0" d="m0 0l754.02625 0l0 534.1181l-754.02625 0z" fill-rule="evenodd"></path><path fill="#fce5cd" d="m19.03412 212.11154l129.73228 0l0 52.314972l-129.73228 0z" fill-rule="evenodd"></path><path stroke="#000000" stroke-width="1.0" stroke-linejoin="round" stroke-linecap="butt" d="m19.03412 212.11154l129.73228 0l0 52.314972l-129.73228 0z" fill-rule="evenodd"></path><path fill="#000000" d="m39.037144 245.18903l0 -13.25l4.5 0q1.59375 0 2.765625 0.53125q1.1875 0.515625 1.984375 1.421875q0.796875 0.890625 1.1875 2.09375q0.40625 1.203125 0.40625 2.5625q0 1.515625 -0.453125 2.734375q-0.4375 1.21875 -1.28125 2.09375q-0.828125 0.859375 -2.0 1.34375q-1.15625 0.46875 -2.609375 0.46875l-4.5 0zm9.53125 -6.640625q0 -1.1875 -0.34375 -2.1875q-0.328125 -1.0 -0.96875 -1.71875q-0.640625 -0.734375 -1.578125 -1.140625q-0.921875 -0.40625 -2.140625 -0.40625l-3.1875 0l0 10.9375l3.1875 0q1.234375 0 2.171875 -0.421875q0.9375 -0.421875 1.578125 -1.15625q0.640625 -0.734375 0.953125 -1.734375q0.328125 -1.0 0.328125 -2.171875zm3.5579681 6.640625l0 -9.71875l1.265625 0l0 9.71875l-1.265625 0zm0 -11.75l0 -1.875l1.265625 0l0 1.875l-1.265625 0zm7.2858124 11.9375q-1.140625 0 -2.21875 -0.375q-1.078125 -0.375 -1.859375 -1.078125l0.578125 -0.859375q0.8125 0.671875 1.65625 1.015625q0.859375 0.328125 1.828125 0.328125q1.171875 0 1.875 -0.46875q0.703125 -0.484375 0.703125 -1.359375q0 -0.40625 -0.1875 -0.671875q-0.1875 -0.28125 -0.5625 -0.484375q-0.359375 -0.203125 -0.90625 -0.359375q-0.546875 -0.171875 -1.28125 -0.328125q-0.828125 -0.21875 -1.453125 -0.421875q-0.609375 -0.203125 -1.015625 -0.453125q-0.40625 -0.265625 -0.609375 -0.640625q-0.1875 -0.390625 -0.1875 -0.96875q0 -0.734375 0.28125 -1.28125q0.296875 -0.5625 0.796875 -0.921875q0.5 -0.375 1.15625 -0.5625q0.65625 -0.1875 1.40625 -0.1875q1.125 0 2.03125 0.375q0.921875 0.359375 1.484375 0.953125l-0.625 0.75q-0.53125 -0.5625 -1.3125 -0.84375q-0.78125 -0.28125 -1.609375 -0.28125q-0.515625 0 -0.9375 0.109375q-0.421875 0.09375 -0.75 0.328125q-0.328125 0.21875 -0.515625 0.5625q-0.1875 0.34375 -0.1875 0.8125q0 0.390625 0.125 0.640625q0.140625 0.234375 0.4375 0.421875q0.296875 0.171875 0.75 0.3125q0.453125 0.140625 1.109375 0.28125q0.9375 0.21875 1.640625 0.453125q0.71875 0.21875 1.1875 0.515625q0.46875 0.296875 0.703125 0.734375q0.25 0.421875 0.25 1.046875q0 1.34375 -1.03125 2.125q-1.015625 0.78125 -2.75 0.78125zm10.819973 0q-1.234375 0 -2.171875 -0.625q-0.9375 -0.625 -1.515625 -1.578125l0 5.984375l-1.265625 0l0 -13.6875l1.125 0l0 1.890625q0.609375 -0.921875 1.546875 -1.484375q0.953125 -0.578125 2.078125 -0.578125q1.0 0 1.84375 0.421875q0.84375 0.421875 1.453125 1.125q0.625 0.6875 0.96875 1.609375q0.34375 0.90625 0.34375 1.890625q0 1.015625 -0.328125 1.9375q-0.3125 0.90625 -0.90625 1.609375q-0.578125 0.6875 -1.390625 1.09375q-0.8125 0.390625 -1.78125 0.390625zm-0.359375 -1.125q0.796875 0 1.4375 -0.328125q0.640625 -0.34375 1.09375 -0.890625q0.46875 -0.546875 0.703125 -1.25q0.25 -0.703125 0.25 -1.4375q0 -0.796875 -0.28125 -1.5q-0.28125 -0.703125 -0.765625 -1.25q-0.484375 -0.546875 -1.15625 -0.859375q-0.65625 -0.3125 -1.421875 -0.3125q-0.484375 0 -1.015625 0.203125q-0.53125 0.1875 -1.0 0.515625q-0.453125 0.328125 -0.78125 0.765625q-0.3125 0.4375 -0.390625 0.921875l0 2.984375q0.21875 0.515625 0.5625 0.96875q0.34375 0.453125 0.78125 0.78125q0.4375 0.3125 0.9375 0.5q0.515625 0.1875 1.046875 0.1875zm9.35466 1.125q-0.6875 0 -1.28125 -0.234375q-0.578125 -0.234375 -1.03125 -0.640625q-0.4375 -0.40625 -0.6875 -0.953125q-0.234375 -0.5625 -0.234375 -1.1875q0 -0.640625 0.296875 -1.171875q0.3125 -0.546875 0.84375 -0.9375q0.546875 -0.390625 1.28125 -0.609375q0.75 -0.21875 1.65625 -0.21875q0.734375 0 1.5 0.140625q0.765625 0.125 1.375 0.359375l0 -0.875q0 -1.28125 -0.734375 -2.03125q-0.734375 -0.765625 -2.015625 -0.765625q-0.75 0 -1.53125 0.296875q-0.78125 0.296875 -1.578125 0.859375l-0.453125 -0.84375q1.890625 -1.265625 3.65625 -1.265625q1.828125 0 2.875 1.03125q1.046875 1.03125 1.046875 2.828125l0 4.390625q0 0.515625 0.46875 0.515625l0 1.125q-0.328125 0.0625 -0.484375 0.0625q-0.484375 0 -0.765625 -0.234375q-0.265625 -0.25 -0.28125 -0.6875l-0.046875 -0.765625q-0.671875 0.875 -1.6875 1.34375q-1.015625 0.46875 -2.1875 0.46875zm0.296875 -0.96875q0.984375 0 1.8125 -0.375q0.84375 -0.375 1.265625 -0.984375q0.171875 -0.171875 0.25 -0.359375q0.09375 -0.203125 0.09375 -0.375l0 -1.578125q-0.640625 -0.25 -1.328125 -0.375q-0.671875 -0.140625 -1.390625 -0.140625q-1.34375 0 -2.1875 0.5625q-0.828125 0.5625 -0.828125 1.484375q0 0.4375 0.171875 0.828125q0.1875 0.390625 0.484375 0.6875q0.3125 0.28125 0.734375 0.453125q0.4375 0.171875 0.921875 0.171875zm12.089539 0.3125q-0.109375 0.0625 -0.328125 0.15625q-0.21875 0.09375 -0.5 0.1875q-0.265625 0.09375 -0.625 0.15625q-0.359375 0.078125 -0.75 0.078125q-0.40625 0 -0.78125 -0.109375q-0.375 -0.109375 -0.65625 -0.34375q-0.28125 -0.234375 -0.453125 -0.578125q-0.15625 -0.359375 -0.15625 -0.828125l0 -6.96875l-1.34375 0l0 -1.0l1.34375 0l0 -3.28125l1.265625 0l0 3.28125l2.234375 0l0 1.0l-2.234375 0l0 6.609375q0.03125 0.546875 0.375 0.796875q0.359375 0.25 0.796875 0.25q0.546875 0 0.953125 -0.171875q0.40625 -0.1875 0.53125 -0.265625l0.328125 1.03125zm0.9217224 -4.421875q0 -1.015625 0.34375 -1.9375q0.359375 -0.921875 1.0 -1.59375q0.640625 -0.6875 1.53125 -1.078125q0.90625 -0.390625 1.984375 -0.390625q1.390625 0 2.40625 0.625q1.03125 0.625 1.546875 1.6875l-1.21875 0.390625q-0.421875 -0.734375 -1.15625 -1.15625q-0.734375 -0.421875 -1.625 -0.421875q-0.75 0 -1.40625 0.296875q-0.640625 0.296875 -1.109375 0.8125q-0.46875 0.515625 -0.75 1.21875q-0.265625 0.703125 -0.265625 1.546875q0 0.828125 0.28125 1.5625q0.28125 0.71875 0.765625 1.25q0.484375 0.53125 1.125 0.84375q0.640625 0.296875 1.375 0.296875q0.46875 0 0.921875 -0.125q0.453125 -0.125 0.84375 -0.359375q0.390625 -0.234375 0.671875 -0.53125q0.28125 -0.296875 0.390625 -0.640625l1.25 0.375q-0.203125 0.515625 -0.59375 0.953125q-0.390625 0.4375 -0.921875 0.765625q-0.53125 0.328125 -1.171875 0.5q-0.640625 0.1875 -1.34375 0.1875q-1.0625 0 -1.953125 -0.390625q-0.890625 -0.40625 -1.546875 -1.109375q-0.65625 -0.703125 -1.015625 -1.609375q-0.359375 -0.921875 -0.359375 -1.96875zm19.08603 4.890625l-1.28125 0l0 -5.421875q0 -1.671875 -0.578125 -2.484375q-0.5625 -0.828125 -1.65625 -0.828125q-0.546875 0 -1.078125 0.21875q-0.53125 0.21875 -1.0 0.59375q-0.453125 0.359375 -0.8125 0.875q-0.34375 0.5 -0.5 1.09375l0 5.953125l-1.265625 0l0 -13.625l1.265625 0l0 6.109375q0.578125 -1.109375 1.59375 -1.734375q1.03125 -0.640625 2.234375 -0.640625q0.828125 0 1.40625 0.3125q0.578125 0.3125 0.953125 0.859375q0.375 0.546875 0.546875 1.328125q0.171875 0.765625 0.171875 1.703125l0 5.6875zm6.892227 0.1875q-1.0625 0 -1.953125 -0.390625q-0.875 -0.40625 -1.53125 -1.109375q-0.65625 -0.703125 -1.015625 -1.609375q-0.359375 -0.921875 -0.359375 -1.96875q0 -1.015625 0.359375 -1.921875q0.359375 -0.90625 1.0 -1.578125q0.65625 -0.6875 1.546875 -1.09375q0.890625 -0.40625 1.9375 -0.40625q1.0625 0 1.9375 0.40625q0.890625 0.40625 1.53125 1.09375q0.640625 0.6875 0.984375 1.59375q0.359375 0.890625 0.359375 1.890625q0 0.15625 0 0.3125q0 0.140625 -0.015625 0.1875l-8.328125 0q0.0625 0.78125 0.359375 1.453125q0.3125 0.65625 0.796875 1.140625q0.484375 0.484375 1.109375 0.765625q0.625 0.265625 1.34375 0.265625q0.46875 0 0.921875 -0.125q0.46875 -0.140625 0.859375 -0.359375q0.390625 -0.234375 0.703125 -0.546875q0.328125 -0.328125 0.5 -0.71875l1.09375 0.296875q-0.21875 0.53125 -0.640625 0.96875q-0.40625 0.4375 -0.953125 0.765625q-0.53125 0.328125 -1.1875 0.5q-0.640625 0.1875 -1.359375 0.1875zm3.578125 -5.5625q-0.046875 -0.78125 -0.359375 -1.421875q-0.3125 -0.640625 -0.78125 -1.109375q-0.46875 -0.46875 -1.09375 -0.734375q-0.625 -0.265625 -1.34375 -0.265625q-0.703125 0 -1.34375 0.265625q-0.625 0.265625 -1.109375 0.734375q-0.46875 0.46875 -0.765625 1.125q-0.28125 0.640625 -0.34375 1.40625l7.140625 0zm8.029343 -3.21875q-1.28125 0.03125 -2.234375 0.703125q-0.953125 0.671875 -1.34375 1.84375l0 6.046875l-1.265625 0l0 -9.71875l1.1875 0l0 2.328125q0.546875 -1.109375 1.453125 -1.75q0.921875 -0.640625 1.953125 -0.640625q0.15625 0 0.25 0.03125l0 1.15625z" fill-rule="nonzero"></path><path fill="#fff2cc" d="m262.6063 132.11285l129.7323 0l0 52.314972l-129.7323 0z" fill-rule="evenodd"></path><path stroke="#000000" stroke-width="1.0" stroke-linejoin="round" stroke-linecap="butt" d="m262.6063 132.11285l129.7323 0l0 52.314972l-129.7323 0z" fill-rule="evenodd"></path><path fill="#000000" d="m313.7916 154.42471q-0.5625 -0.640625 -1.5 -1.03125q-0.921875 -0.390625 -2.125 -0.390625q-1.75 0 -2.5625 0.671875q-0.796875 0.65625 -0.796875 1.796875q0 0.59375 0.21875 0.984375q0.21875 0.375 0.65625 0.65625q0.453125 0.28125 1.15625 0.484375q0.703125 0.203125 1.640625 0.40625q1.0625 0.234375 1.90625 0.515625q0.859375 0.265625 1.453125 0.6875q0.609375 0.421875 0.921875 1.03125q0.3125 0.59375 0.3125 1.484375q0 0.90625 -0.359375 1.578125q-0.34375 0.671875 -0.984375 1.125q-0.625 0.453125 -1.515625 0.671875q-0.875 0.203125 -1.921875 0.203125q-3.078125 0 -5.3125 -1.921875l0.65625 -1.0625q0.359375 0.375 0.84375 0.71875q0.5 0.328125 1.109375 0.578125q0.609375 0.25 1.296875 0.390625q0.6875 0.140625 1.453125 0.140625q1.578125 0 2.46875 -0.5625q0.890625 -0.578125 0.890625 -1.734375q0 -0.609375 -0.25 -1.03125q-0.25 -0.421875 -0.765625 -0.71875q-0.5 -0.3125 -1.25 -0.53125q-0.734375 -0.234375 -1.734375 -0.453125q-1.046875 -0.25 -1.828125 -0.5q-0.78125 -0.265625 -1.328125 -0.65625q-0.53125 -0.390625 -0.8125 -0.9375q-0.265625 -0.5625 -0.265625 -1.359375q0 -0.921875 0.34375 -1.640625q0.34375 -0.71875 0.984375 -1.1875q0.640625 -0.46875 1.484375 -0.71875q0.859375 -0.265625 1.90625 -0.265625q1.328125 0 2.359375 0.40625q1.046875 0.40625 1.875 1.125l-0.625 1.046875zm7.980591 10.296875q-0.109375 0.0625 -0.328125 0.15625q-0.21875 0.09375 -0.5 0.1875q-0.265625 0.09375 -0.625 0.15625q-0.359375 0.078125 -0.75 0.078125q-0.40625 0 -0.78125 -0.109375q-0.375 -0.109375 -0.65625 -0.34375q-0.28125 -0.234375 -0.453125 -0.578125q-0.15625 -0.359375 -0.15625 -0.828125l0 -6.96875l-1.34375 0l0 -1.0l1.34375 0l0 -3.28125l1.265625 0l0 3.28125l2.234375 0l0 1.0l-2.234375 0l0 6.609375q0.03125 0.546875 0.375 0.796875q0.359375 0.25 0.796875 0.25q0.546875 0 0.953125 -0.171875q0.40625 -0.1875 0.53125 -0.265625l0.328125 1.03125zm5.7342224 0.65625q-1.0625 0 -1.953125 -0.390625q-0.875 -0.40625 -1.515625 -1.09375q-0.640625 -0.703125 -1.0 -1.609375q-0.34375 -0.921875 -0.34375 -1.921875q0 -1.03125 0.359375 -1.9375q0.359375 -0.921875 1.0 -1.609375q0.65625 -0.6875 1.53125 -1.09375q0.875 -0.421875 1.921875 -0.421875q1.03125 0 1.921875 0.421875q0.890625 0.40625 1.53125 1.09375q0.640625 0.6875 1.0 1.609375q0.375 0.90625 0.375 1.9375q0 1.0 -0.359375 1.921875q-0.359375 0.90625 -1.0 1.609375q-0.640625 0.6875 -1.53125 1.09375q-0.875 0.390625 -1.9375 0.390625zm-3.53125 -5.0q0 0.8125 0.28125 1.515625q0.28125 0.703125 0.75 1.234375q0.484375 0.53125 1.125 0.828125q0.640625 0.296875 1.375 0.296875q0.71875 0 1.359375 -0.296875q0.65625 -0.3125 1.140625 -0.84375q0.484375 -0.53125 0.75 -1.234375q0.28125 -0.71875 0.28125 -1.53125q0 -0.8125 -0.28125 -1.53125q-0.265625 -0.71875 -0.75 -1.25q-0.484375 -0.53125 -1.140625 -0.828125q-0.640625 -0.3125 -1.359375 -0.3125q-0.734375 0 -1.375 0.3125q-0.625 0.296875 -1.109375 0.84375q-0.484375 0.53125 -0.765625 1.25q-0.28125 0.71875 -0.28125 1.546875zm15.334839 -3.78125q-1.28125 0.03125 -2.234375 0.703125q-0.953125 0.671875 -1.34375 1.84375l0 6.046875l-1.265625 0l0 -9.71875l1.1875 0l0 2.328125q0.546875 -1.109375 1.453125 -1.75q0.921875 -0.640625 1.953125 -0.640625q0.15625 0 0.25 0.03125l0 1.15625zm5.89209 8.78125q-1.0625 0 -1.953125 -0.390625q-0.875 -0.40625 -1.53125 -1.109375q-0.65625 -0.703125 -1.015625 -1.609375q-0.359375 -0.921875 -0.359375 -1.96875q0 -1.015625 0.359375 -1.921875q0.359375 -0.90625 1.0 -1.578125q0.65625 -0.6875 1.546875 -1.09375q0.890625 -0.40625 1.9375 -0.40625q1.0625 0 1.9375 0.40625q0.890625 0.40625 1.53125 1.09375q0.640625 0.6875 0.984375 1.59375q0.359375 0.890625 0.359375 1.890625q0 0.15625 0 0.3125q0 0.140625 -0.015625 0.1875l-8.328125 0q0.0625 0.78125 0.359375 1.453125q0.3125 0.65625 0.796875 1.140625q0.484375 0.484375 1.109375 0.765625q0.625 0.265625 1.34375 0.265625q0.46875 0 0.921875 -0.125q0.46875 -0.140625 0.859375 -0.359375q0.390625 -0.234375 0.703125 -0.546875q0.328125 -0.328125 0.5 -0.71875l1.09375 0.296875q-0.21875 0.53125 -0.640625 0.96875q-0.40625 0.4375 -0.953125 0.765625q-0.53125 0.328125 -1.1875 0.5q-0.640625 0.1875 -1.359375 0.1875zm3.578125 -5.5625q-0.046875 -0.78125 -0.359375 -1.421875q-0.3125 -0.640625 -0.78125 -1.109375q-0.46875 -0.46875 -1.09375 -0.734375q-0.625 -0.265625 -1.34375 -0.265625q-0.703125 0 -1.34375 0.265625q-0.625 0.265625 -1.109375 0.734375q-0.46875 0.46875 -0.765625 1.125q-0.28125 0.640625 -0.34375 1.40625l7.140625 0z" fill-rule="nonzero"></path><path fill="#d9ead3" d="m488.40683 213.35957l129.73227 0l0 52.314957l-129.73227 0z" fill-rule="evenodd"></path><path stroke="#000000" stroke-width="1.0" stroke-linejoin="round" stroke-linecap="butt" d="m488.40683 213.35957l129.73227 0l0 52.314957l-129.73227 0z" fill-rule="evenodd"></path><path fill="#000000" d="m533.4556 233.18706l4.734375 11.625l4.71875 -11.625l1.359375 0l-5.515625 13.25l-1.140625 0l-5.515625 -13.25l1.359375 0zm12.464478 13.25l0 -9.71875l1.265625 0l0 9.71875l-1.265625 0zm0 -11.75l0 -1.875l1.265625 0l0 1.875l-1.265625 0zm8.254578 11.9375q-1.0625 0 -1.953125 -0.390625q-0.875 -0.40625 -1.53125 -1.109375q-0.65625 -0.703125 -1.015625 -1.609375q-0.359375 -0.921875 -0.359375 -1.96875q0 -1.015625 0.359375 -1.921875q0.359375 -0.90625 1.0 -1.578125q0.65625 -0.6875 1.546875 -1.09375q0.890625 -0.40625 1.9375 -0.40625q1.0625 0 1.9375 0.40625q0.890625 0.40625 1.53125 1.09375q0.640625 0.6875 0.984375 1.59375q0.359375 0.890625 0.359375 1.890625q0 0.15625 0 0.3125q0 0.140625 -0.015625 0.1875l-8.328125 0q0.0625 0.78125 0.359375 1.453125q0.3125 0.65625 0.796875 1.140625q0.484375 0.484375 1.109375 0.765625q0.625 0.265625 1.34375 0.265625q0.46875 0 0.921875 -0.125q0.46875 -0.140625 0.859375 -0.359375q0.390625 -0.234375 0.703125 -0.546875q0.328125 -0.328125 0.5 -0.71875l1.09375 0.296875q-0.21875 0.53125 -0.640625 0.96875q-0.40625 0.4375 -0.953125 0.765625q-0.53125 0.328125 -1.1875 0.5q-0.640625 0.1875 -1.359375 0.1875zm3.578125 -5.5625q-0.046875 -0.78125 -0.359375 -1.421875q-0.3125 -0.640625 -0.78125 -1.109375q-0.46875 -0.46875 -1.09375 -0.734375q-0.625 -0.265625 -1.34375 -0.265625q-0.703125 0 -1.34375 0.265625q-0.625 0.265625 -1.109375 0.734375q-0.46875 0.46875 -0.765625 1.125q-0.28125 0.640625 -0.34375 1.40625l7.140625 0zm15.419983 -4.34375l1.25 0l-4.1875 9.71875l-1.046875 0l-2.078125 -4.96875l-2.078125 4.96875l-1.046875 0l-4.171875 -9.71875l1.234375 0l3.546875 8.40625l1.84375 -4.4375l-1.65625 -3.953125l1.0625 0l1.265625 3.171875l1.265625 -3.171875l1.078125 0l-1.65625 3.953125l1.84375 4.4375l3.53125 -8.40625z" fill-rule="nonzero"></path><path fill="#000000" fill-opacity="0.0" d="m121.06356 205.501l112.25196 0l0 32.7874l-112.25196 0z" fill-rule="evenodd"></path><path fill="#000000" d="m153.99036 230.01726q-0.59375 0 -1.09375 -0.1875q-0.5 -0.203125 -0.890625 -0.546875q-0.375 -0.359375 -0.578125 -0.828125q-0.203125 -0.484375 -0.203125 -1.03125q0 -0.53125 0.25 -1.0q0.265625 -0.46875 0.71875 -0.796875q0.46875 -0.34375 1.109375 -0.515625q0.640625 -0.1875 1.40625 -0.1875q0.640625 0 1.296875 0.109375q0.65625 0.109375 1.171875 0.3125l0 -0.75q0 -1.109375 -0.625 -1.75q-0.625 -0.640625 -1.734375 -0.640625q-0.640625 0 -1.3125 0.25q-0.671875 0.25 -1.359375 0.734375l-0.375 -0.71875q1.609375 -1.09375 3.125 -1.09375q1.578125 0 2.46875 0.890625q0.890625 0.875 0.890625 2.421875l0 3.765625q0 0.453125 0.40625 0.453125l0 0.953125q-0.265625 0.046875 -0.421875 0.046875q-0.40625 0 -0.640625 -0.203125q-0.234375 -0.21875 -0.25 -0.578125l-0.03125 -0.65625q-0.578125 0.75 -1.453125 1.15625q-0.875 0.390625 -1.875 0.390625zm0.25 -0.828125q0.859375 0 1.5625 -0.3125q0.71875 -0.328125 1.078125 -0.859375q0.15625 -0.140625 0.21875 -0.296875q0.078125 -0.171875 0.078125 -0.328125l0 -1.359375q-0.546875 -0.203125 -1.140625 -0.3125q-0.578125 -0.109375 -1.1875 -0.109375q-1.140625 0 -1.875 0.484375q-0.71875 0.46875 -0.71875 1.25q0 0.390625 0.15625 0.734375q0.15625 0.328125 0.421875 0.578125q0.265625 0.25 0.625 0.390625q0.375 0.140625 0.78125 0.140625zm5.7981415 -3.515625q0 -0.890625 0.296875 -1.671875q0.3125 -0.78125 0.859375 -1.359375q0.5625 -0.59375 1.328125 -0.921875q0.765625 -0.34375 1.6875 -0.34375q1.1875 0 2.0625 0.546875q0.890625 0.53125 1.328125 1.4375l-1.046875 0.34375q-0.359375 -0.640625 -1.0 -1.0q-0.625 -0.359375 -1.390625 -0.359375q-0.640625 0 -1.1875 0.25q-0.546875 0.25 -0.96875 0.703125q-0.40625 0.4375 -0.640625 1.046875q-0.21875 0.609375 -0.21875 1.328125q0 0.703125 0.234375 1.328125q0.234375 0.625 0.65625 1.078125q0.421875 0.453125 0.96875 0.71875q0.546875 0.265625 1.171875 0.265625q0.40625 0 0.796875 -0.109375q0.390625 -0.125 0.71875 -0.3125q0.34375 -0.203125 0.578125 -0.453125q0.25 -0.265625 0.34375 -0.546875l1.0625 0.3125q-0.171875 0.453125 -0.515625 0.828125q-0.328125 0.375 -0.78125 0.65625q-0.453125 0.28125 -1.015625 0.421875q-0.546875 0.15625 -1.140625 0.15625q-0.90625 0 -1.671875 -0.34375q-0.765625 -0.34375 -1.328125 -0.9375q-0.5625 -0.609375 -0.875 -1.390625q-0.3125 -0.78125 -0.3125 -1.671875zm13.362137 3.78125q-0.09375 0.046875 -0.28125 0.140625q-0.1875 0.078125 -0.4375 0.15625q-0.234375 0.078125 -0.546875 0.140625q-0.296875 0.0625 -0.625 0.0625q-0.359375 0 -0.6875 -0.09375q-0.3125 -0.09375 -0.546875 -0.296875q-0.234375 -0.203125 -0.390625 -0.5q-0.140625 -0.3125 -0.140625 -0.703125l0 -5.96875l-1.140625 0l0 -0.875l1.140625 0l0 -2.8125l1.09375 0l0 2.8125l1.921875 0l0 0.875l-1.921875 0l0 5.65625q0.03125 0.46875 0.328125 0.6875q0.296875 0.21875 0.671875 0.21875q0.46875 0 0.8125 -0.15625q0.359375 -0.15625 0.453125 -0.21875l0.296875 0.875zm1.3600159 0.40625l0 -8.34375l1.078125 0l0 8.34375l-1.078125 0zm0 -10.078125l0 -1.609375l1.078125 0l0 1.609375l-1.078125 0zm7.0348816 10.234375q-0.90625 0 -1.65625 -0.34375q-0.75 -0.34375 -1.3125 -0.9375q-0.546875 -0.59375 -0.859375 -1.375q-0.296875 -0.78125 -0.296875 -1.640625q0 -0.890625 0.3125 -1.671875q0.3125 -0.78125 0.859375 -1.375q0.5625 -0.59375 1.3125 -0.9375q0.75 -0.359375 1.640625 -0.359375q0.890625 0 1.65625 0.359375q0.765625 0.34375 1.3125 0.9375q0.546875 0.59375 0.859375 1.375q0.3125 0.78125 0.3125 1.671875q0 0.859375 -0.3125 1.640625q-0.296875 0.78125 -0.84375 1.375q-0.546875 0.59375 -1.3125 0.9375q-0.765625 0.34375 -1.671875 0.34375zm-3.015625 -4.28125q0 0.703125 0.234375 1.3125q0.234375 0.59375 0.640625 1.046875q0.421875 0.453125 0.96875 0.71875q0.546875 0.25 1.171875 0.25q0.625 0 1.171875 -0.265625q0.5625 -0.265625 0.96875 -0.71875q0.421875 -0.453125 0.65625 -1.0625q0.25 -0.609375 0.25 -1.3125q0 -0.6875 -0.25 -1.296875q-0.234375 -0.625 -0.65625 -1.078125q-0.40625 -0.453125 -0.96875 -0.71875q-0.546875 -0.265625 -1.171875 -0.265625q-0.625 0 -1.171875 0.265625q-0.53125 0.265625 -0.953125 0.734375q-0.421875 0.453125 -0.65625 1.078125q-0.234375 0.609375 -0.234375 1.3125zm15.98877 4.125l-1.078125 0l0 -4.65625q0 -1.484375 -0.453125 -2.15625q-0.4375 -0.671875 -1.34375 -0.671875q-0.484375 0 -0.96875 0.171875q-0.46875 0.171875 -0.875 0.5q-0.40625 0.3125 -0.734375 0.765625q-0.3125 0.4375 -0.46875 0.9375l0 5.109375l-1.078125 0l0 -8.34375l0.984375 0l0 1.890625q0.515625 -0.90625 1.46875 -1.46875q0.953125 -0.5625 2.078125 -0.5625q0.6875 0 1.15625 0.265625q0.484375 0.25 0.765625 0.71875q0.296875 0.453125 0.421875 1.125q0.125 0.671875 0.125 1.5l0 4.875zm5.093643 0.15625q-0.984375 0 -1.90625 -0.3125q-0.921875 -0.328125 -1.59375 -0.9375l0.484375 -0.734375q0.703125 0.578125 1.4375 0.875q0.734375 0.28125 1.5625 0.28125q1.0 0 1.59375 -0.40625q0.609375 -0.40625 0.609375 -1.15625q0 -0.359375 -0.15625 -0.59375q-0.15625 -0.234375 -0.46875 -0.40625q-0.3125 -0.171875 -0.796875 -0.3125q-0.46875 -0.140625 -1.09375 -0.28125q-0.71875 -0.171875 -1.25 -0.34375q-0.515625 -0.1875 -0.859375 -0.40625q-0.34375 -0.21875 -0.515625 -0.546875q-0.171875 -0.328125 -0.171875 -0.828125q0 -0.625 0.25 -1.09375q0.25 -0.484375 0.671875 -0.796875q0.421875 -0.3125 0.984375 -0.46875q0.578125 -0.171875 1.21875 -0.171875q0.953125 0 1.734375 0.3125q0.796875 0.3125 1.265625 0.828125l-0.515625 0.640625q-0.46875 -0.484375 -1.140625 -0.71875q-0.65625 -0.234375 -1.375 -0.234375q-0.4375 0 -0.8125 0.09375q-0.359375 0.078125 -0.640625 0.265625q-0.28125 0.1875 -0.4375 0.484375q-0.15625 0.296875 -0.15625 0.703125q0 0.328125 0.109375 0.546875q0.109375 0.203125 0.359375 0.359375q0.265625 0.140625 0.65625 0.265625q0.390625 0.125 0.953125 0.25q0.796875 0.1875 1.40625 0.390625q0.609375 0.1875 1.015625 0.453125q0.40625 0.25 0.609375 0.625q0.21875 0.359375 0.21875 0.875q0 1.15625 -0.890625 1.828125q-0.875 0.671875 -2.359375 0.671875z" fill-rule="nonzero"></path><path fill="#efefef" d="m243.07462 28.112862l172.69293 0l0 52.314957l-172.69293 0z" fill-rule="evenodd"></path><path stroke="#000000" stroke-width="1.0" stroke-linejoin="round" stroke-linecap="butt" d="m243.07462 28.112862l172.69293 0l0 52.314957l-172.69293 0z" fill-rule="evenodd"></path><path fill="#000000" d="m273.05206 47.94034l1.09375 0l5.515625 13.25l-1.390625 0l-1.71875 -4.140625l-5.9375 0l-1.703125 4.140625l-1.40625 0l5.546875 -13.25zm3.203125 8.078125l-2.65625 -6.546875l-2.71875 6.546875l5.375 0zm4.3772583 0.28125q0 -1.015625 0.34375 -1.9375q0.359375 -0.921875 1.0 -1.59375q0.640625 -0.6875 1.53125 -1.078125q0.90625 -0.390625 1.984375 -0.390625q1.390625 0 2.40625 0.625q1.03125 0.625 1.546875 1.6875l-1.21875 0.390625q-0.421875 -0.734375 -1.15625 -1.15625q-0.734375 -0.421875 -1.625 -0.421875q-0.75 0 -1.40625 0.296875q-0.640625 0.296875 -1.109375 0.8125q-0.46875 0.515625 -0.75 1.21875q-0.265625 0.703125 -0.265625 1.546875q0 0.828125 0.28125 1.5625q0.28125 0.71875 0.765625 1.25q0.484375 0.53125 1.125 0.84375q0.640625 0.296875 1.375 0.296875q0.46875 0 0.921875 -0.125q0.453125 -0.125 0.84375 -0.359375q0.390625 -0.234375 0.671875 -0.53125q0.28125 -0.296875 0.390625 -0.640625l1.25 0.375q-0.203125 0.515625 -0.59375 0.953125q-0.390625 0.4375 -0.921875 0.765625q-0.53125 0.328125 -1.171875 0.5q-0.640625 0.1875 -1.34375 0.1875q-1.0625 0 -1.953125 -0.390625q-0.890625 -0.40625 -1.546875 -1.109375q-0.65625 -0.703125 -1.015625 -1.609375q-0.359375 -0.921875 -0.359375 -1.96875zm15.570404 4.421875q-0.109375 0.0625 -0.328125 0.15625q-0.21875 0.09375 -0.5 0.1875q-0.265625 0.09375 -0.625 0.15625q-0.359375 0.078125 -0.75 0.078125q-0.40625 0 -0.78125 -0.109375q-0.375 -0.109375 -0.65625 -0.34375q-0.28125 -0.234375 -0.453125 -0.578125q-0.15625 -0.359375 -0.15625 -0.828125l0 -6.96875l-1.34375 0l0 -1.0l1.34375 0l0 -3.28125l1.265625 0l0 3.28125l2.234375 0l0 1.0l-2.234375 0l0 6.609375q0.03125 0.546875 0.375 0.796875q0.359375 0.25 0.796875 0.25q0.546875 0 0.953125 -0.171875q0.40625 -0.1875 0.53125 -0.265625l0.328125 1.03125zm1.5935974 0.46875l0 -9.71875l1.265625 0l0 9.71875l-1.265625 0zm0 -11.75l0 -1.875l1.265625 0l0 1.875l-1.265625 0zm8.207672 11.9375q-1.0625 0 -1.953125 -0.390625q-0.875 -0.40625 -1.515625 -1.09375q-0.640625 -0.703125 -1.0 -1.609375q-0.34375 -0.921875 -0.34375 -1.921875q0 -1.03125 0.359375 -1.9375q0.359375 -0.921875 1.0 -1.609375q0.65625 -0.6875 1.53125 -1.09375q0.875 -0.421875 1.921875 -0.421875q1.03125 0 1.921875 0.421875q0.890625 0.40625 1.53125 1.09375q0.640625 0.6875 1.0 1.609375q0.375 0.90625 0.375 1.9375q0 1.0 -0.359375 1.921875q-0.359375 0.90625 -1.0 1.609375q-0.640625 0.6875 -1.53125 1.09375q-0.875 0.390625 -1.9375 0.390625zm-3.53125 -5.0q0 0.8125 0.28125 1.515625q0.28125 0.703125 0.75 1.234375q0.484375 0.53125 1.125 0.828125q0.640625 0.296875 1.375 0.296875q0.71875 0 1.359375 -0.296875q0.65625 -0.3125 1.140625 -0.84375q0.484375 -0.53125 0.75 -1.234375q0.28125 -0.71875 0.28125 -1.53125q0 -0.8125 -0.28125 -1.53125q-0.265625 -0.71875 -0.75 -1.25q-0.484375 -0.53125 -1.140625 -0.828125q-0.640625 -0.3125 -1.359375 -0.3125q-0.734375 0 -1.375 0.3125q-0.625 0.296875 -1.109375 0.84375q-0.484375 0.53125 -0.765625 1.25q-0.28125 0.71875 -0.28125 1.546875zm18.662964 4.8125l-1.28125 0l0 -5.421875q0 -1.734375 -0.515625 -2.515625q-0.5 -0.796875 -1.5625 -0.796875q-0.5625 0 -1.125 0.203125q-0.5625 0.203125 -1.046875 0.578125q-0.46875 0.375 -0.84375 0.890625q-0.375 0.515625 -0.53125 1.109375l0 5.953125l-1.265625 0l0 -9.71875l1.15625 0l0 2.203125q0.59375 -1.0625 1.703125 -1.71875q1.109375 -0.65625 2.40625 -0.65625q0.8125 0 1.359375 0.296875q0.5625 0.296875 0.890625 0.84375q0.34375 0.546875 0.5 1.328125q0.15625 0.78125 0.15625 1.734375l0 5.6875zm6.8370667 -6.71875q0 -1.1875 0.421875 -2.375q0.421875 -1.1875 1.21875 -2.109375q0.8125 -0.9375 1.984375 -1.53125q1.171875 -0.59375 2.671875 -0.59375q1.765625 0 3.015625 0.8125q1.265625 0.796875 1.859375 2.09375l-1.015625 0.625q-0.328125 -0.65625 -0.78125 -1.09375q-0.453125 -0.453125 -0.984375 -0.734375q-0.515625 -0.28125 -1.078125 -0.390625q-0.5625 -0.125 -1.09375 -0.125q-1.203125 0 -2.125 0.484375q-0.90625 0.484375 -1.53125 1.265625q-0.625 0.78125 -0.9375 1.765625q-0.3125 0.96875 -0.3125 1.984375q0 1.09375 0.375 2.109375q0.390625 1.0 1.046875 1.78125q0.65625 0.765625 1.5625 1.234375q0.90625 0.453125 1.96875 0.453125q0.5625 0 1.140625 -0.140625q0.59375 -0.140625 1.140625 -0.4375q0.5625 -0.3125 1.03125 -0.765625q0.46875 -0.46875 0.78125 -1.125l1.078125 0.5625q-0.3125 0.75 -0.890625 1.328125q-0.578125 0.5625 -1.296875 0.953125q-0.703125 0.390625 -1.5 0.59375q-0.78125 0.203125 -1.546875 0.203125q-1.375 0 -2.515625 -0.59375q-1.125 -0.59375 -1.953125 -1.546875q-0.8125 -0.96875 -1.28125 -2.1875q-0.453125 -1.234375 -0.453125 -2.5zm18.266937 -1.875q-1.28125 0.03125 -2.234375 0.703125q-0.953125 0.671875 -1.34375 1.84375l0 6.046875l-1.265625 0l0 -9.71875l1.1875 0l0 2.328125q0.546875 -1.109375 1.453125 -1.75q0.921875 -0.640625 1.953125 -0.640625q0.15625 0 0.25 0.03125l0 1.15625zm5.89209 8.78125q-1.0625 0 -1.953125 -0.390625q-0.875 -0.40625 -1.53125 -1.109375q-0.65625 -0.703125 -1.015625 -1.609375q-0.359375 -0.921875 -0.359375 -1.96875q0 -1.015625 0.359375 -1.921875q0.359375 -0.90625 1.0 -1.578125q0.65625 -0.6875 1.546875 -1.09375q0.890625 -0.40625 1.9375 -0.40625q1.0625 0 1.9375 0.40625q0.890625 0.40625 1.53125 1.09375q0.640625 0.6875 0.984375 1.59375q0.359375 0.890625 0.359375 1.890625q0 0.15625 0 0.3125q0 0.140625 -0.015625 0.1875l-8.328125 0q0.0625 0.78125 0.359375 1.453125q0.3125 0.65625 0.796875 1.140625q0.484375 0.484375 1.109375 0.765625q0.625 0.265625 1.34375 0.265625q0.46875 0 0.921875 -0.125q0.46875 -0.140625 0.859375 -0.359375q0.390625 -0.234375 0.703125 -0.546875q0.328125 -0.328125 0.5 -0.71875l1.09375 0.296875q-0.21875 0.53125 -0.640625 0.96875q-0.40625 0.4375 -0.953125 0.765625q-0.53125 0.328125 -1.1875 0.5q-0.640625 0.1875 -1.359375 0.1875zm3.578125 -5.5625q-0.046875 -0.78125 -0.359375 -1.421875q-0.3125 -0.640625 -0.78125 -1.109375q-0.46875 -0.46875 -1.09375 -0.734375q-0.625 -0.265625 -1.34375 -0.265625q-0.703125 0 -1.34375 0.265625q-0.625 0.265625 -1.109375 0.734375q-0.46875 0.46875 -0.765625 1.125q-0.28125 0.640625 -0.34375 1.40625l7.140625 0zm5.623108 5.5625q-0.6875 0 -1.28125 -0.234375q-0.578125 -0.234375 -1.03125 -0.640625q-0.4375 -0.40625 -0.6875 -0.953125q-0.234375 -0.5625 -0.234375 -1.1875q0 -0.640625 0.296875 -1.171875q0.3125 -0.546875 0.84375 -0.9375q0.546875 -0.390625 1.28125 -0.609375q0.75 -0.21875 1.65625 -0.21875q0.734375 0 1.5 0.140625q0.765625 0.125 1.375 0.359375l0 -0.875q0 -1.28125 -0.734375 -2.03125q-0.734375 -0.765625 -2.015625 -0.765625q-0.75 0 -1.53125 0.296875q-0.78125 0.296875 -1.578125 0.859375l-0.453125 -0.84375q1.890625 -1.265625 3.65625 -1.265625q1.828125 0 2.875 1.03125q1.046875 1.03125 1.046875 2.828125l0 4.390625q0 0.515625 0.46875 0.515625l0 1.125q-0.328125 0.0625 -0.484375 0.0625q-0.484375 0 -0.765625 -0.234375q-0.265625 -0.25 -0.28125 -0.6875l-0.046875 -0.765625q-0.671875 0.875 -1.6875 1.34375q-1.015625 0.46875 -2.1875 0.46875zm0.296875 -0.96875q0.984375 0 1.8125 -0.375q0.84375 -0.375 1.265625 -0.984375q0.171875 -0.171875 0.25 -0.359375q0.09375 -0.203125 0.09375 -0.375l0 -1.578125q-0.640625 -0.25 -1.328125 -0.375q-0.671875 -0.140625 -1.390625 -0.140625q-1.34375 0 -2.1875 0.5625q-0.828125 0.5625 -0.828125 1.484375q0 0.4375 0.171875 0.828125q0.1875 0.390625 0.484375 0.6875q0.3125 0.28125 0.734375 0.453125q0.4375 0.171875 0.921875 0.171875zm12.089539 0.3125q-0.109375 0.0625 -0.328125 0.15625q-0.21875 0.09375 -0.5 0.1875q-0.265625 0.09375 -0.625 0.15625q-0.359375 0.078125 -0.75 0.078125q-0.40625 0 -0.78125 -0.109375q-0.375 -0.109375 -0.65625 -0.34375q-0.28125 -0.234375 -0.453125 -0.578125q-0.15625 -0.359375 -0.15625 -0.828125l0 -6.96875l-1.34375 0l0 -1.0l1.34375 0l0 -3.28125l1.265625 0l0 3.28125l2.234375 0l0 1.0l-2.234375 0l0 6.609375q0.03125 0.546875 0.375 0.796875q0.359375 0.25 0.796875 0.25q0.546875 0 0.953125 -0.171875q0.40625 -0.1875 0.53125 -0.265625l0.328125 1.03125zm5.7342224 0.65625q-1.0625 0 -1.953125 -0.390625q-0.875 -0.40625 -1.515625 -1.09375q-0.640625 -0.703125 -1.0 -1.609375q-0.34375 -0.921875 -0.34375 -1.921875q0 -1.03125 0.359375 -1.9375q0.359375 -0.921875 1.0 -1.609375q0.65625 -0.6875 1.53125 -1.09375q0.875 -0.421875 1.921875 -0.421875q1.03125 0 1.921875 0.421875q0.890625 0.40625 1.53125 1.09375q0.640625 0.6875 1.0 1.609375q0.375 0.90625 0.375 1.9375q0 1.0 -0.359375 1.921875q-0.359375 0.90625 -1.0 1.609375q-0.640625 0.6875 -1.53125 1.09375q-0.875 0.390625 -1.9375 0.390625zm-3.53125 -5.0q0 0.8125 0.28125 1.515625q0.28125 0.703125 0.75 1.234375q0.484375 0.53125 1.125 0.828125q0.640625 0.296875 1.375 0.296875q0.71875 0 1.359375 -0.296875q0.65625 -0.3125 1.140625 -0.84375q0.484375 -0.53125 0.75 -1.234375q0.28125 -0.71875 0.28125 -1.53125q0 -0.8125 -0.28125 -1.53125q-0.265625 -0.71875 -0.75 -1.25q-0.484375 -0.53125 -1.140625 -0.828125q-0.640625 -0.3125 -1.359375 -0.3125q-0.734375 0 -1.375 0.3125q-0.625 0.296875 -1.109375 0.84375q-0.484375 0.53125 -0.765625 1.25q-0.28125 0.71875 -0.28125 1.546875zm15.334839 -3.78125q-1.28125 0.03125 -2.234375 0.703125q-0.953125 0.671875 -1.34375 1.84375l0 6.046875l-1.265625 0l0 -9.71875l1.1875 0l0 2.328125q0.546875 -1.109375 1.453125 -1.75q0.921875 -0.640625 1.953125 -0.640625q0.15625 0 0.25 0.03125l0 1.15625z" fill-rule="nonzero"></path><path fill="#000000" fill-opacity="0.0" d="m94.5328 21.5958l142.11023 0l0 32.7874l-142.11023 0z" fill-rule="evenodd"></path><path fill="#000000" d="m115.52482 41.768303q0 -0.890625 0.296875 -1.671875q0.3125 -0.78125 0.859375 -1.359375q0.5625 -0.59375 1.328125 -0.921875q0.765625 -0.34375 1.6875 -0.34375q1.1875 0 2.0625 0.546875q0.890625 0.53125 1.328125 1.4375l-1.046875 0.34375q-0.359375 -0.640625 -1.0 -1.0q-0.625 -0.359375 -1.390625 -0.359375q-0.640625 0 -1.1875 0.25q-0.546875 0.25 -0.96875 0.703125q-0.40625 0.4375 -0.640625 1.046875q-0.21875 0.609375 -0.21875 1.328125q0 0.703125 0.234375 1.328125q0.234375 0.625 0.65625 1.078125q0.421875 0.453125 0.96875 0.71875q0.546875 0.265625 1.171875 0.265625q0.40625 0 0.796875 -0.109375q0.390625 -0.125 0.71875 -0.3125q0.34375 -0.203125 0.578125 -0.453125q0.25 -0.265625 0.34375 -0.546875l1.0625 0.3125q-0.171875 0.453125 -0.515625 0.828125q-0.328125 0.375 -0.78125 0.65625q-0.453125 0.28125 -1.015625 0.421875q-0.546875 0.15625 -1.140625 0.15625q-0.90625 0 -1.671875 -0.34375q-0.765625 -0.34375 -1.328125 -0.9375q-0.5625 -0.609375 -0.875 -1.390625q-0.3125 -0.78125 -0.3125 -1.671875zm11.455887 4.34375q-0.59375 0 -1.09375 -0.1875q-0.5 -0.203125 -0.890625 -0.546875q-0.375 -0.359375 -0.578125 -0.828125q-0.203125 -0.484375 -0.203125 -1.03125q0 -0.53125 0.25 -1.0q0.265625 -0.46875 0.71875 -0.796875q0.46875 -0.34375 1.109375 -0.515625q0.640625 -0.1875 1.40625 -0.1875q0.6406174 0 1.2968674 0.109375q0.65625 0.109375 1.171875 0.3125l0 -0.75q0 -1.109375 -0.625 -1.75q-0.625 -0.640625 -1.7343674 -0.640625q-0.640625 0 -1.3125 0.25q-0.671875 0.25 -1.359375 0.734375l-0.375 -0.71875q1.609375 -1.09375 3.125 -1.09375q1.5781174 0 2.4687424 0.890625q0.890625 0.875 0.890625 2.421875l0 3.765625q0 0.453125 0.40625 0.453125l0 0.953125q-0.265625 0.046875 -0.421875 0.046875q-0.40625 0 -0.640625 -0.203125q-0.234375 -0.21875 -0.25 -0.578125l-0.03125 -0.65625q-0.578125 0.75 -1.453125 1.15625q-0.8749924 0.390625 -1.8749924 0.390625zm0.25 -0.828125q0.8593674 0 1.5624924 -0.3125q0.71875 -0.328125 1.078125 -0.859375q0.15625 -0.140625 0.21875 -0.296875q0.078125 -0.171875 0.078125 -0.328125l0 -1.359375q-0.546875 -0.203125 -1.140625 -0.3125q-0.578125 -0.109375 -1.1874924 -0.109375q-1.140625 0 -1.875 0.484375q-0.71875 0.46875 -0.71875 1.25q0 0.390625 0.15625 0.734375q0.15625 0.328125 0.421875 0.578125q0.265625 0.25 0.625 0.390625q0.375 0.140625 0.78125 0.140625zm6.423134 -11.015625l1.09375 0l0 9.796875q0 0.46875 0.25 0.734375q0.25 0.265625 0.71875 0.265625q0.171875 0 0.40625 -0.046875q0.25 -0.046875 0.453125 -0.140625l0.203125 0.890625q-0.3125 0.125 -0.75 0.203125q-0.4375 0.078125 -0.765625 0.078125q-0.75 0 -1.1875 -0.421875q-0.421875 -0.421875 -0.421875 -1.1875l0 -10.171875zm4.352005 0l1.09375 0l0 9.796875q0 0.46875 0.25 0.734375q0.25 0.265625 0.71875 0.265625q0.171875 0 0.40625 -0.046875q0.25 -0.046875 0.453125 -0.140625l0.203125 0.890625q-0.3125 0.125 -0.75 0.203125q-0.4375 0.078125 -0.765625 0.078125q-0.75 0 -1.1875 -0.421875q-0.421875 -0.421875 -0.421875 -1.1875l0 -10.171875zm7.070755 11.84375q-0.984375 0 -1.90625 -0.3125q-0.921875 -0.328125 -1.59375 -0.9375l0.484375 -0.734375q0.703125 0.578125 1.4375 0.875q0.734375 0.28125 1.5625 0.28125q1.0 0 1.59375 -0.40625q0.609375 -0.40625 0.609375 -1.15625q0 -0.359375 -0.15625 -0.59375q-0.15625 -0.234375 -0.46875 -0.40625q-0.3125 -0.171875 -0.796875 -0.3125q-0.46875 -0.140625 -1.09375 -0.28125q-0.71875 -0.171875 -1.25 -0.34375q-0.515625 -0.1875 -0.859375 -0.40625q-0.34375 -0.21875 -0.515625 -0.546875q-0.171875 -0.328125 -0.171875 -0.828125q0 -0.625 0.25 -1.09375q0.25 -0.484375 0.671875 -0.796875q0.421875 -0.3125 0.984375 -0.46875q0.578125 -0.171875 1.21875 -0.171875q0.953125 0 1.734375 0.3125q0.796875 0.3125 1.265625 0.828125l-0.515625 0.640625q-0.46875 -0.484375 -1.140625 -0.71875q-0.65625 -0.234375 -1.375 -0.234375q-0.4375 0 -0.8125 0.09375q-0.359375 0.078125 -0.640625 0.265625q-0.28125 0.1875 -0.4375 0.484375q-0.15625 0.296875 -0.15625 0.703125q0 0.328125 0.109375 0.546875q0.109375 0.203125 0.359375 0.359375q0.265625 0.140625 0.65625 0.265625q0.390625 0.125 0.953125 0.25q0.796875 0.1875 1.40625 0.390625q0.609375 0.1875 1.015625 0.453125q0.40625 0.25 0.609375 0.625q0.21875 0.359375 0.21875 0.875q0 1.15625 -0.890625 1.828125q-0.875 0.671875 -2.359375 0.671875zm12.528275 0q-0.859375 0 -1.609375 -0.359375q-0.734375 -0.359375 -1.265625 -0.953125q-0.515625 -0.59375 -0.8125 -1.359375q-0.296875 -0.78125 -0.296875 -1.625q0 -0.890625 0.28125 -1.671875q0.296875 -0.796875 0.796875 -1.390625q0.5 -0.59375 1.1875 -0.9375q0.703125 -0.34375 1.546875 -0.34375q1.046875 0 1.8593903 0.5625q0.828125 0.546875 1.28125 1.328125l0 -5.09375l1.09375 0l0 10.28125q0 0.453125 0.390625 0.453125l0 0.953125q-0.25 0.046875 -0.390625 0.046875q-0.390625 0 -0.671875 -0.25q-0.28125 -0.25 -0.28125 -0.59375l0 -0.8125q-0.5 0.8125 -1.359375 1.296875q-0.84376526 0.46875 -1.7500153 0.46875zm0.234375 -0.953125q0.40625 0 0.85939026 -0.15625q0.453125 -0.171875 0.84375 -0.453125q0.40625 -0.28125 0.6875 -0.65625q0.28125 -0.375 0.34375 -0.796875l0 -2.578125q-0.15625 -0.4375 -0.46875 -0.8125q-0.296875 -0.375 -0.6875 -0.65625q-0.390625 -0.296875 -0.84375 -0.453125q-0.43751526 -0.15625 -0.87501526 -0.15625q-0.671875 0 -1.21875 0.296875q-0.546875 0.28125 -0.9375 0.75q-0.390625 0.46875 -0.59375 1.078125q-0.203125 0.609375 -0.203125 1.25q0 0.671875 0.234375 1.28125q0.234375 0.609375 0.65625 1.0625q0.421875 0.453125 0.984375 0.734375q0.5625 0.265625 1.21875 0.265625zm6.2957916 0.796875l0 -8.34375l1.078125 0l0 8.34375l-1.078125 0zm0 -10.078125l0 -1.609375l1.078125 0l0 1.609375l-1.078125 0zm6.2536316 10.234375q-0.984375 0 -1.90625 -0.3125q-0.921875 -0.328125 -1.59375 -0.9375l0.484375 -0.734375q0.703125 0.578125 1.4375 0.875q0.734375 0.28125 1.5625 0.28125q1.0 0 1.59375 -0.40625q0.609375 -0.40625 0.609375 -1.15625q0 -0.359375 -0.15625 -0.59375q-0.15625 -0.234375 -0.46875 -0.40625q-0.3125 -0.171875 -0.796875 -0.3125q-0.46875 -0.140625 -1.09375 -0.28125q-0.71875 -0.171875 -1.25 -0.34375q-0.515625 -0.1875 -0.859375 -0.40625q-0.34375 -0.21875 -0.515625 -0.546875q-0.171875 -0.328125 -0.171875 -0.828125q0 -0.625 0.25 -1.09375q0.25 -0.484375 0.671875 -0.796875q0.421875 -0.3125 0.984375 -0.46875q0.578125 -0.171875 1.21875 -0.171875q0.953125 0 1.734375 0.3125q0.796875 0.3125 1.265625 0.828125l-0.515625 0.640625q-0.46875 -0.484375 -1.140625 -0.71875q-0.65625 -0.234375 -1.375 -0.234375q-0.4375 0 -0.8125 0.09375q-0.359375 0.078125 -0.640625 0.265625q-0.28125 0.1875 -0.4375 0.484375q-0.15625 0.296875 -0.15625 0.703125q0 0.328125 0.109375 0.546875q0.109375 0.203125 0.359375 0.359375q0.265625 0.140625 0.65625 0.265625q0.390625 0.125 0.953125 0.25q0.796875 0.1875 1.40625 0.390625q0.609375 0.1875 1.015625 0.453125q0.40625 0.25 0.609375 0.625q0.21875 0.359375 0.21875 0.875q0 1.15625 -0.890625 1.828125q-0.875 0.671875 -2.359375 0.671875zm9.276398 0q-1.046875 0 -1.859375 -0.53125q-0.8125 -0.53125 -1.3125 -1.359375l0 5.140625l-1.078125 0l0 -11.75l0.96875 0l0 1.625q0.515625 -0.78125 1.328125 -1.265625q0.8125 -0.5 1.78125 -0.5q0.859375 0 1.578125 0.359375q0.71875 0.359375 1.25 0.96875q0.53125 0.59375 0.828125 1.390625q0.296875 0.78125 0.296875 1.609375q0 0.875 -0.28125 1.65625q-0.265625 0.78125 -0.765625 1.375q-0.5 0.59375 -1.203125 0.9375q-0.703125 0.34375 -1.53125 0.34375zm-0.296875 -0.953125q0.671875 0 1.21875 -0.28125q0.546875 -0.296875 0.9375 -0.765625q0.40625 -0.46875 0.609375 -1.0625q0.203125 -0.609375 0.203125 -1.25q0 -0.671875 -0.25 -1.28125q-0.234375 -0.609375 -0.65625 -1.0625q-0.40625 -0.46875 -0.96875 -0.734375q-0.5625 -0.28125 -1.21875 -0.28125q-0.421875 0 -0.875 0.171875q-0.453125 0.15625 -0.859375 0.4375q-0.390625 0.28125 -0.671875 0.65625q-0.265625 0.375 -0.34375 0.796875l0 2.5625q0.203125 0.4375 0.5 0.828125q0.296875 0.375 0.671875 0.65625q0.375 0.28125 0.796875 0.453125q0.4375 0.15625 0.90625 0.15625zm8.01265 0.953125q-0.59375 0 -1.09375 -0.1875q-0.5 -0.203125 -0.890625 -0.546875q-0.375 -0.359375 -0.578125 -0.828125q-0.203125 -0.484375 -0.203125 -1.03125q0 -0.53125 0.25 -1.0q0.265625 -0.46875 0.71875 -0.796875q0.46875 -0.34375 1.109375 -0.515625q0.640625 -0.1875 1.40625 -0.1875q0.640625 0 1.296875 0.109375q0.65625 0.109375 1.171875 0.3125l0 -0.75q0 -1.109375 -0.625 -1.75q-0.625 -0.640625 -1.734375 -0.640625q-0.640625 0 -1.3125 0.25q-0.671875 0.25 -1.359375 0.734375l-0.375 -0.71875q1.609375 -1.09375 3.125 -1.09375q1.578125 0 2.46875 0.890625q0.890625 0.875 0.890625 2.421875l0 3.765625q0 0.453125 0.40625 0.453125l0 0.953125q-0.265625 0.046875 -0.421875 0.046875q-0.40625 0 -0.640625 -0.203125q-0.234375 -0.21875 -0.25 -0.578125l-0.03125 -0.65625q-0.578125 0.75 -1.453125 1.15625q-0.875 0.390625 -1.875 0.390625zm0.25 -0.828125q0.859375 0 1.5625 -0.3125q0.71875 -0.328125 1.078125 -0.859375q0.15625 -0.140625 0.21875 -0.296875q0.078125 -0.171875 0.078125 -0.328125l0 -1.359375q-0.546875 -0.203125 -1.140625 -0.3125q-0.578125 -0.109375 -1.1875 -0.109375q-1.140625 0 -1.875 0.484375q-0.71875 0.46875 -0.71875 1.25q0 0.390625 0.15625 0.734375q0.15625 0.328125 0.421875 0.578125q0.265625 0.25 0.625 0.390625q0.375 0.140625 0.78125 0.140625zm10.3762665 0.265625q-0.09375 0.046875 -0.28125 0.140625q-0.1875 0.078125 -0.4375 0.15625q-0.234375 0.078125 -0.546875 0.140625q-0.296875 0.0625 -0.625 0.0625q-0.359375 0 -0.6875 -0.09375q-0.3125 -0.09375 -0.546875 -0.296875q-0.234375 -0.203125 -0.390625 -0.5q-0.140625 -0.3125 -0.140625 -0.703125l0 -5.96875l-1.140625 0l0 -0.875l1.140625 0l0 -2.8125l1.09375 0l0 2.8125l1.921875 0l0 0.875l-1.921875 0l0 5.65625q0.03125 0.46875 0.328125 0.6875q0.296875 0.21875 0.671875 0.21875q0.46875 0 0.8125 -0.15625q0.359375 -0.15625 0.453125 -0.21875l0.296875 0.875zm0.78189087 -3.78125q0 -0.890625 0.296875 -1.671875q0.3125 -0.78125 0.859375 -1.359375q0.5625 -0.59375 1.328125 -0.921875q0.765625 -0.34375 1.6875 -0.34375q1.1875 0 2.0625 0.546875q0.890625 0.53125 1.328125 1.4375l-1.046875 0.34375q-0.359375 -0.640625 -1.0 -1.0q-0.625 -0.359375 -1.390625 -0.359375q-0.640625 0 -1.1875 0.25q-0.546875 0.25 -0.96875 0.703125q-0.40625 0.4375 -0.640625 1.046875q-0.21875 0.609375 -0.21875 1.328125q0 0.703125 0.234375 1.328125q0.234375 0.625 0.65625 1.078125q0.421875 0.453125 0.96875 0.71875q0.546875 0.265625 1.171875 0.265625q0.40625 0 0.796875 -0.109375q0.390625 -0.125 0.71875 -0.3125q0.34375 -0.203125 0.578125 -0.453125q0.25 -0.265625 0.34375 -0.546875l1.0625 0.3125q-0.171875 0.453125 -0.515625 0.828125q-0.328125 0.375 -0.78125 0.65625q-0.453125 0.28125 -1.015625 0.421875q-0.546875 0.15625 -1.140625 0.15625q-0.90625 0 -1.671875 -0.34375q-0.765625 -0.34375 -1.328125 -0.9375q-0.5625 -0.609375 -0.875 -1.390625q-0.3125 -0.78125 -0.3125 -1.671875zm16.362137 4.1875l-1.078125 0l0 -4.65625q0 -1.421875 -0.5 -2.125q-0.484375 -0.703125 -1.421875 -0.703125q-0.46875 0 -0.921875 0.1875q-0.453125 0.171875 -0.859375 0.5q-0.390625 0.3125 -0.6875 0.75q-0.296875 0.4375 -0.453125 0.9375l0 5.109375l-1.078125 0l0 -11.6875l1.078125 0l0 5.234375q0.5 -0.9375 1.375 -1.484375q0.890625 -0.546875 1.90625 -0.546875q0.71875 0 1.21875 0.265625q0.5 0.265625 0.8125 0.734375q0.328125 0.46875 0.46875 1.140625q0.140625 0.65625 0.140625 1.46875l0 4.875z" fill-rule="nonzero"></path><path fill="#000000" fill-opacity="0.0" d="m422.19684 16.625753l142.11023 0l0 32.7874l-142.11023 0z" fill-rule="evenodd"></path><path fill="#000000" d="m473.15277 41.142002q-0.90625 0 -1.671875 -0.34375q-0.75 -0.34375 -1.3125 -0.9375q-0.5625 -0.609375 -0.875 -1.390625q-0.3125 -0.78125 -0.3125 -1.671875q0 -0.890625 0.3125 -1.65625q0.3125 -0.78125 0.859375 -1.359375q0.5625 -0.59375 1.328125 -0.9375q0.765625 -0.34375 1.65625 -0.34375q0.921875 0 1.671875 0.34375q0.765625 0.34375 1.296875 0.9375q0.546875 0.59375 0.84375 1.359375q0.3125 0.765625 0.3125 1.640625q0 0.125 0 0.25q0 0.125 -0.015625 0.171875l-7.125 0q0.046875 0.671875 0.3125 1.25q0.265625 0.5625 0.671875 0.984375q0.421875 0.40625 0.953125 0.640625q0.53125 0.234375 1.140625 0.234375q0.40625 0 0.796875 -0.109375q0.40625 -0.109375 0.734375 -0.296875q0.34375 -0.203125 0.609375 -0.484375q0.28125 -0.28125 0.421875 -0.609375l0.953125 0.25q-0.203125 0.46875 -0.5625 0.84375q-0.34375 0.375 -0.8125 0.65625q-0.453125 0.28125 -1.015625 0.421875q-0.5625 0.15625 -1.171875 0.15625zm3.078125 -4.765625q-0.046875 -0.671875 -0.3125 -1.21875q-0.265625 -0.5625 -0.671875 -0.953125q-0.40625 -0.40625 -0.953125 -0.625q-0.53125 -0.21875 -1.140625 -0.21875q-0.609375 0 -1.15625 0.21875q-0.53125 0.21875 -0.953125 0.625q-0.40625 0.390625 -0.65625 0.953125q-0.234375 0.5625 -0.28125 1.21875l6.125 0zm5.220154 4.609375l-3.40625 -8.34375l1.125 0l2.859375 7.328125l2.890625 -7.328125l1.046875 0l-3.390625 8.34375l-1.125 0zm9.621765 0.15625q-0.90625 0 -1.671875 -0.34375q-0.75 -0.34375 -1.3125 -0.9375q-0.5625 -0.609375 -0.875 -1.390625q-0.3125 -0.78125 -0.3125 -1.671875q0 -0.890625 0.3125 -1.65625q0.3125 -0.78125 0.859375 -1.359375q0.5625 -0.59375 1.328125 -0.9375q0.765625 -0.34375 1.65625 -0.34375q0.921875 0 1.671875 0.34375q0.765625 0.34375 1.296875 0.9375q0.546875 0.59375 0.84375 1.359375q0.3125 0.765625 0.3125 1.640625q0 0.125 0 0.25q0 0.125 -0.015625 0.171875l-7.125 0q0.046875 0.671875 0.3125 1.25q0.265625 0.5625 0.671875 0.984375q0.421875 0.40625 0.953125 0.640625q0.53125 0.234375 1.140625 0.234375q0.40625 0 0.796875 -0.109375q0.40625 -0.109375 0.734375 -0.296875q0.34375 -0.203125 0.609375 -0.484375q0.28125 -0.28125 0.421875 -0.609375l0.953125 0.25q-0.203125 0.46875 -0.5625 0.84375q-0.34375 0.375 -0.8125 0.65625q-0.453125 0.28125 -1.015625 0.421875q-0.5625 0.15625 -1.171875 0.15625zm3.078125 -4.765625q-0.046875 -0.671875 -0.3125 -1.21875q-0.265625 -0.5625 -0.671875 -0.953125q-0.40625 -0.40625 -0.953125 -0.625q-0.53125 -0.21875 -1.140625 -0.21875q-0.609375 0 -1.15625 0.21875q-0.53125 0.21875 -0.953125 0.625q-0.40625 0.390625 -0.65625 0.953125q-0.234375 0.5625 -0.28125 1.21875l6.125 0zm9.720154 4.609375l-1.078125 0l0 -4.65625q0 -1.484375 -0.453125 -2.15625q-0.4375 -0.671875 -1.34375 -0.671875q-0.484375 0 -0.96875 0.171875q-0.46875 0.171875 -0.875 0.5q-0.40625 0.3125 -0.734375 0.765625q-0.3125 0.4375 -0.46875 0.9375l0 5.109375l-1.078125 0l0 -8.34375l0.984375 0l0 1.890625q0.515625 -0.90625 1.46875 -1.46875q0.953125 -0.5625 2.078125 -0.5625q0.6875 0 1.15625 0.265625q0.484375 0.25 0.765625 0.71875q0.296875 0.453125 0.421875 1.125q0.125 0.671875 0.125 1.5l0 4.875zm6.328003 -0.40625q-0.09375 0.046875 -0.28125 0.140625q-0.1875 0.078125 -0.4375 0.15625q-0.234375 0.078125 -0.546875 0.140625q-0.296875 0.0625 -0.625 0.0625q-0.359375 0 -0.6875 -0.09375q-0.3125 -0.09375 -0.546875 -0.296875q-0.234375 -0.203125 -0.390625 -0.5q-0.140625 -0.3125 -0.140625 -0.703125l0 -5.96875l-1.140625 0l0 -0.875l1.140625 0l0 -2.812498l1.09375 0l0 2.812498l1.921875 0l0 0.875l-1.921875 0l0 5.65625q0.03125 0.46875 0.328125 0.6875q0.296875 0.21875 0.671875 0.21875q0.46875 0 0.8125 -0.15625q0.359375 -0.15625 0.453125 -0.21875l0.296875 0.875zm4.1256714 0.5625q-0.984375 0 -1.90625 -0.3125q-0.9219055 -0.328125 -1.5937805 -0.9375l0.484375 -0.734375q0.7031555 0.578125 1.4375305 0.875q0.734375 0.28125 1.5625 0.28125q1.0 0 1.59375 -0.40625q0.609375 -0.40625 0.609375 -1.15625q0 -0.359375 -0.15625 -0.59375q-0.15625 -0.234375 -0.46875 -0.40625q-0.3125 -0.171875 -0.796875 -0.3125q-0.46875 -0.140625 -1.09375 -0.28125q-0.71875 -0.171875 -1.25 -0.34375q-0.515625 -0.1875 -0.8594055 -0.40625q-0.34375 -0.21875 -0.515625 -0.546875q-0.171875 -0.328125 -0.171875 -0.828125q0 -0.625 0.25 -1.09375q0.25 -0.484375 0.6719055 -0.796875q0.421875 -0.3125 0.984375 -0.46875q0.578125 -0.171875 1.21875 -0.171875q0.953125 0 1.734375 0.3125q0.796875 0.3125 1.265625 0.828125l-0.515625 0.640625q-0.46875 -0.484375 -1.140625 -0.71875q-0.65625 -0.234375 -1.375 -0.234375q-0.4375 0 -0.8125 0.09375q-0.359375 0.078125 -0.640625 0.265625q-0.28125 0.1875 -0.4375 0.484375q-0.15625 0.296875 -0.15625 0.703125q0 0.328125 0.109375 0.546875q0.109375 0.203125 0.359375 0.359375q0.265625 0.140625 0.65625 0.265625q0.390625 0.125 0.953125 0.25q0.796875 0.1875 1.40625 0.390625q0.609375 0.1875 1.015625 0.453125q0.40625 0.25 0.609375 0.625q0.21875 0.359375 0.21875 0.875q0 1.15625 -0.890625 1.828125q-0.875 0.671875 -2.359375 0.671875z" fill-rule="nonzero"></path><path fill="#fff2cc" d="m262.6063 212.11285l129.7323 0l0 52.314972l-129.7323 0z" fill-rule="evenodd"></path><path stroke="#000000" stroke-width="1.0" stroke-linejoin="round" stroke-linecap="butt" d="m262.6063 212.11285l129.7323 0l0 52.314972l-129.7323 0z" fill-rule="evenodd"></path><path fill="#000000" d="m313.7916 234.42471q-0.5625 -0.640625 -1.5 -1.03125q-0.921875 -0.390625 -2.125 -0.390625q-1.75 0 -2.5625 0.671875q-0.796875 0.65625 -0.796875 1.796875q0 0.59375 0.21875 0.984375q0.21875 0.375 0.65625 0.65625q0.453125 0.28125 1.15625 0.484375q0.703125 0.203125 1.640625 0.40625q1.0625 0.234375 1.90625 0.515625q0.859375 0.265625 1.453125 0.6875q0.609375 0.421875 0.921875 1.03125q0.3125 0.59375 0.3125 1.484375q0 0.90625 -0.359375 1.578125q-0.34375 0.671875 -0.984375 1.125q-0.625 0.453125 -1.515625 0.671875q-0.875 0.203125 -1.921875 0.203125q-3.078125 0 -5.3125 -1.921875l0.65625 -1.0625q0.359375 0.375 0.84375 0.71875q0.5 0.328125 1.109375 0.578125q0.609375 0.25 1.296875 0.390625q0.6875 0.140625 1.453125 0.140625q1.578125 0 2.46875 -0.5625q0.890625 -0.578125 0.890625 -1.734375q0 -0.609375 -0.25 -1.03125q-0.25 -0.421875 -0.765625 -0.71875q-0.5 -0.3125 -1.25 -0.53125q-0.734375 -0.234375 -1.734375 -0.453125q-1.046875 -0.25 -1.828125 -0.5q-0.78125 -0.265625 -1.328125 -0.65625q-0.53125 -0.390625 -0.8125 -0.9375q-0.265625 -0.5625 -0.265625 -1.359375q0 -0.921875 0.34375 -1.640625q0.34375 -0.71875 0.984375 -1.1875q0.640625 -0.46875 1.484375 -0.71875q0.859375 -0.265625 1.90625 -0.265625q1.328125 0 2.359375 0.40625q1.046875 0.40625 1.875 1.125l-0.625 1.046875zm7.980591 10.296875q-0.109375 0.0625 -0.328125 0.15625q-0.21875 0.09375 -0.5 0.1875q-0.265625 0.09375 -0.625 0.15625q-0.359375 0.078125 -0.75 0.078125q-0.40625 0 -0.78125 -0.109375q-0.375 -0.109375 -0.65625 -0.34375q-0.28125 -0.234375 -0.453125 -0.578125q-0.15625 -0.359375 -0.15625 -0.828125l0 -6.96875l-1.34375 0l0 -1.0l1.34375 0l0 -3.28125l1.265625 0l0 3.28125l2.234375 0l0 1.0l-2.234375 0l0 6.609375q0.03125 0.546875 0.375 0.796875q0.359375 0.25 0.796875 0.25q0.546875 0 0.953125 -0.171875q0.40625 -0.1875 0.53125 -0.265625l0.328125 1.03125zm5.7342224 0.65625q-1.0625 0 -1.953125 -0.390625q-0.875 -0.40625 -1.515625 -1.09375q-0.640625 -0.703125 -1.0 -1.609375q-0.34375 -0.921875 -0.34375 -1.921875q0 -1.03125 0.359375 -1.9375q0.359375 -0.921875 1.0 -1.609375q0.65625 -0.6875 1.53125 -1.09375q0.875 -0.421875 1.921875 -0.421875q1.03125 0 1.921875 0.421875q0.890625 0.40625 1.53125 1.09375q0.640625 0.6875 1.0 1.609375q0.375 0.90625 0.375 1.9375q0 1.0 -0.359375 1.921875q-0.359375 0.90625 -1.0 1.609375q-0.640625 0.6875 -1.53125 1.09375q-0.875 0.390625 -1.9375 0.390625zm-3.53125 -5.0q0 0.8125 0.28125 1.515625q0.28125 0.703125 0.75 1.234375q0.484375 0.53125 1.125 0.828125q0.640625 0.296875 1.375 0.296875q0.71875 0 1.359375 -0.296875q0.65625 -0.3125 1.140625 -0.84375q0.484375 -0.53125 0.75 -1.234375q0.28125 -0.71875 0.28125 -1.53125q0 -0.8125 -0.28125 -1.53125q-0.265625 -0.71875 -0.75 -1.25q-0.484375 -0.53125 -1.140625 -0.828125q-0.640625 -0.3125 -1.359375 -0.3125q-0.734375 0 -1.375 0.3125q-0.625 0.296875 -1.109375 0.84375q-0.484375 0.53125 -0.765625 1.25q-0.28125 0.71875 -0.28125 1.546875zm15.334839 -3.78125q-1.28125 0.03125 -2.234375 0.703125q-0.953125 0.671875 -1.34375 1.84375l0 6.046875l-1.265625 0l0 -9.71875l1.1875 0l0 2.328125q0.546875 -1.109375 1.453125 -1.75q0.921875 -0.640625 1.953125 -0.640625q0.15625 0 0.25 0.03125l0 1.15625zm5.89209 8.78125q-1.0625 0 -1.953125 -0.390625q-0.875 -0.40625 -1.53125 -1.109375q-0.65625 -0.703125 -1.015625 -1.609375q-0.359375 -0.921875 -0.359375 -1.96875q0 -1.015625 0.359375 -1.921875q0.359375 -0.90625 1.0 -1.578125q0.65625 -0.6875 1.546875 -1.09375q0.890625 -0.40625 1.9375 -0.40625q1.0625 0 1.9375 0.40625q0.890625 0.40625 1.53125 1.09375q0.640625 0.6875 0.984375 1.59375q0.359375 0.890625 0.359375 1.890625q0 0.15625 0 0.3125q0 0.140625 -0.015625 0.1875l-8.328125 0q0.0625 0.78125 0.359375 1.453125q0.3125 0.65625 0.796875 1.140625q0.484375 0.484375 1.109375 0.765625q0.625 0.265625 1.34375 0.265625q0.46875 0 0.921875 -0.125q0.46875 -0.140625 0.859375 -0.359375q0.390625 -0.234375 0.703125 -0.546875q0.328125 -0.328125 0.5 -0.71875l1.09375 0.296875q-0.21875 0.53125 -0.640625 0.96875q-0.40625 0.4375 -0.953125 0.765625q-0.53125 0.328125 -1.1875 0.5q-0.640625 0.1875 -1.359375 0.1875zm3.578125 -5.5625q-0.046875 -0.78125 -0.359375 -1.421875q-0.3125 -0.640625 -0.78125 -1.109375q-0.46875 -0.46875 -1.09375 -0.734375q-0.625 -0.265625 -1.34375 -0.265625q-0.703125 0 -1.34375 0.265625q-0.625 0.265625 -1.109375 0.734375q-0.46875 0.46875 -0.765625 1.125q-0.28125 0.640625 -0.34375 1.40625l7.140625 0z" fill-rule="nonzero"></path><path fill="#fff2cc" d="m262.6063 292.11285l129.7323 0l0 52.314972l-129.7323 0z" fill-rule="evenodd"></path><path stroke="#000000" stroke-width="1.0" stroke-linejoin="round" stroke-linecap="butt" d="m262.6063 292.11285l129.7323 0l0 52.314972l-129.7323 0z" fill-rule="evenodd"></path><path fill="#000000" d="m313.7916 314.4247q-0.5625 -0.640625 -1.5 -1.03125q-0.921875 -0.390625 -2.125 -0.390625q-1.75 0 -2.5625 0.671875q-0.796875 0.65625 -0.796875 1.796875q0 0.59375 0.21875 0.984375q0.21875 0.375 0.65625 0.65625q0.453125 0.28125 1.15625 0.484375q0.703125 0.203125 1.640625 0.40625q1.0625 0.234375 1.90625 0.515625q0.859375 0.265625 1.453125 0.6875q0.609375 0.421875 0.921875 1.03125q0.3125 0.59375 0.3125 1.484375q0 0.90625 -0.359375 1.578125q-0.34375 0.671875 -0.984375 1.125q-0.625 0.453125 -1.515625 0.671875q-0.875 0.203125 -1.921875 0.203125q-3.078125 0 -5.3125 -1.921875l0.65625 -1.0625q0.359375 0.375 0.84375 0.71875q0.5 0.328125 1.109375 0.578125q0.609375 0.25 1.296875 0.390625q0.6875 0.140625 1.453125 0.140625q1.578125 0 2.46875 -0.5625q0.890625 -0.578125 0.890625 -1.734375q0 -0.609375 -0.25 -1.03125q-0.25 -0.421875 -0.765625 -0.71875q-0.5 -0.3125 -1.25 -0.53125q-0.734375 -0.234375 -1.734375 -0.453125q-1.046875 -0.25 -1.828125 -0.5q-0.78125 -0.265625 -1.328125 -0.65625q-0.53125 -0.390625 -0.8125 -0.9375q-0.265625 -0.5625 -0.265625 -1.359375q0 -0.921875 0.34375 -1.640625q0.34375 -0.71875 0.984375 -1.1875q0.640625 -0.46875 1.484375 -0.71875q0.859375 -0.265625 1.90625 -0.265625q1.328125 0 2.359375 0.40625q1.046875 0.40625 1.875 1.125l-0.625 1.046875zm7.980591 10.296875q-0.109375 0.0625 -0.328125 0.15625q-0.21875 0.09375 -0.5 0.1875q-0.265625 0.09375 -0.625 0.15625q-0.359375 0.078125 -0.75 0.078125q-0.40625 0 -0.78125 -0.109375q-0.375 -0.109375 -0.65625 -0.34375q-0.28125 -0.234375 -0.453125 -0.578125q-0.15625 -0.359375 -0.15625 -0.828125l0 -6.96875l-1.34375 0l0 -1.0l1.34375 0l0 -3.28125l1.265625 0l0 3.28125l2.234375 0l0 1.0l-2.234375 0l0 6.609375q0.03125 0.546875 0.375 0.796875q0.359375 0.25 0.796875 0.25q0.546875 0 0.953125 -0.171875q0.40625 -0.1875 0.53125 -0.265625l0.328125 1.03125zm5.7342224 0.65625q-1.0625 0 -1.953125 -0.390625q-0.875 -0.40625 -1.515625 -1.09375q-0.640625 -0.703125 -1.0 -1.609375q-0.34375 -0.921875 -0.34375 -1.921875q0 -1.03125 0.359375 -1.9375q0.359375 -0.921875 1.0 -1.609375q0.65625 -0.6875 1.53125 -1.09375q0.875 -0.421875 1.921875 -0.421875q1.03125 0 1.921875 0.421875q0.890625 0.40625 1.53125 1.09375q0.640625 0.6875 1.0 1.609375q0.375 0.90625 0.375 1.9375q0 1.0 -0.359375 1.921875q-0.359375 0.90625 -1.0 1.609375q-0.640625 0.6875 -1.53125 1.09375q-0.875 0.390625 -1.9375 0.390625zm-3.53125 -5.0q0 0.8125 0.28125 1.515625q0.28125 0.703125 0.75 1.234375q0.484375 0.53125 1.125 0.828125q0.640625 0.296875 1.375 0.296875q0.71875 0 1.359375 -0.296875q0.65625 -0.3125 1.140625 -0.84375q0.484375 -0.53125 0.75 -1.234375q0.28125 -0.71875 0.28125 -1.53125q0 -0.8125 -0.28125 -1.53125q-0.265625 -0.71875 -0.75 -1.25q-0.484375 -0.53125 -1.140625 -0.828125q-0.640625 -0.3125 -1.359375 -0.3125q-0.734375 0 -1.375 0.3125q-0.625 0.296875 -1.109375 0.84375q-0.484375 0.53125 -0.765625 1.25q-0.28125 0.71875 -0.28125 1.546875zm15.334839 -3.78125q-1.28125 0.03125 -2.234375 0.703125q-0.953125 0.671875 -1.34375 1.84375l0 6.046875l-1.265625 0l0 -9.71875l1.1875 0l0 2.328125q0.546875 -1.109375 1.453125 -1.75q0.921875 -0.640625 1.953125 -0.640625q0.15625 0 0.25 0.03125l0 1.15625zm5.89209 8.78125q-1.0625 0 -1.953125 -0.390625q-0.875 -0.40625 -1.53125 -1.109375q-0.65625 -0.703125 -1.015625 -1.609375q-0.359375 -0.921875 -0.359375 -1.96875q0 -1.015625 0.359375 -1.921875q0.359375 -0.90625 1.0 -1.578125q0.65625 -0.6875 1.546875 -1.09375q0.890625 -0.40625 1.9375 -0.40625q1.0625 0 1.9375 0.40625q0.890625 0.40625 1.53125 1.09375q0.640625 0.6875 0.984375 1.59375q0.359375 0.890625 0.359375 1.890625q0 0.15625 0 0.3125q0 0.140625 -0.015625 0.1875l-8.328125 0q0.0625 0.78125 0.359375 1.453125q0.3125 0.65625 0.796875 1.140625q0.484375 0.484375 1.109375 0.765625q0.625 0.265625 1.34375 0.265625q0.46875 0 0.921875 -0.125q0.46875 -0.140625 0.859375 -0.359375q0.390625 -0.234375 0.703125 -0.546875q0.328125 -0.328125 0.5 -0.71875l1.09375 0.296875q-0.21875 0.53125 -0.640625 0.96875q-0.40625 0.4375 -0.953125 0.765625q-0.53125 0.328125 -1.1875 0.5q-0.640625 0.1875 -1.359375 0.1875zm3.578125 -5.5625q-0.046875 -0.78125 -0.359375 -1.421875q-0.3125 -0.640625 -0.78125 -1.109375q-0.46875 -0.46875 -1.09375 -0.734375q-0.625 -0.265625 -1.34375 -0.265625q-0.703125 0 -1.34375 0.265625q-0.625 0.265625 -1.109375 0.734375q-0.46875 0.46875 -0.765625 1.125q-0.28125 0.640625 -0.34375 1.40625l7.140625 0z" fill-rule="nonzero"></path><path fill="#d9ead3" d="m431.16272 343.41733l129.7323 0l0 52.31494l-129.7323 0z" fill-rule="evenodd"></path><path stroke="#000000" stroke-width="1.0" stroke-linejoin="round" stroke-linecap="butt" d="m431.16272 343.41733l129.7323 0l0 52.31494l-129.7323 0z" fill-rule="evenodd"></path><path fill="#000000" d="m476.21155 363.2448l4.734375 11.625l4.71875 -11.625l1.359375 0l-5.515625 13.25l-1.140625 0l-5.515625 -13.25l1.359375 0zm12.464478 13.25l0 -9.71875l1.265625 0l0 9.71875l-1.265625 0zm0 -11.75l0 -1.875l1.265625 0l0 1.875l-1.265625 0zm8.254547 11.9375q-1.0625 0 -1.953125 -0.390625q-0.875 -0.40625 -1.53125 -1.109375q-0.65625 -0.703125 -1.015625 -1.609375q-0.359375 -0.921875 -0.359375 -1.96875q0 -1.015625 0.359375 -1.921875q0.359375 -0.90625 1.0 -1.578125q0.65625 -0.6875 1.546875 -1.09375q0.890625 -0.40625 1.9375 -0.40625q1.0625 0 1.9375 0.40625q0.890625 0.40625 1.53125 1.09375q0.640625 0.6875 0.984375 1.59375q0.359375 0.890625 0.359375 1.890625q0 0.15625 0 0.3125q0 0.140625 -0.015625 0.1875l-8.328125 0q0.0625 0.78125 0.359375 1.453125q0.3125 0.65625 0.796875 1.140625q0.484375 0.484375 1.109375 0.765625q0.625 0.265625 1.34375 0.265625q0.46875 0 0.921875 -0.125q0.46875 -0.140625 0.859375 -0.359375q0.390625 -0.234375 0.703125 -0.546875q0.328125 -0.328125 0.5 -0.71875l1.09375 0.296875q-0.21875 0.53125 -0.640625 0.96875q-0.40625 0.4375 -0.953125 0.765625q-0.53125 0.328125 -1.1875 0.5q-0.640625 0.1875 -1.359375 0.1875zm3.578125 -5.5625q-0.046875 -0.78125 -0.359375 -1.421875q-0.3125 -0.640625 -0.78125 -1.109375q-0.46875 -0.46875 -1.09375 -0.734375q-0.625 -0.265625 -1.34375 -0.265625q-0.703125 0 -1.34375 0.265625q-0.625 0.265625 -1.109375 0.734375q-0.46875 0.46875 -0.765625 1.125q-0.28125 0.640625 -0.34375 1.40625l7.140625 0zm15.419952 -4.34375l1.25 0l-4.1875 9.71875l-1.0468445 0l-2.078125 -4.96875l-2.078125 4.96875l-1.046875 0l-4.171875 -9.71875l1.234375 0l3.546875 8.40625l1.84375 -4.4375l-1.65625 -3.953125l1.0625 0l1.265625 3.171875l1.265625 -3.171875l1.0780945 0l-1.6562195 3.953125l1.8437195 4.4375l3.53125 -8.40625z" fill-rule="nonzero"></path><path fill="#d9ead3" d="m375.50394 459.9685l129.73227 0l0 52.31494l-129.73227 0z" fill-rule="evenodd"></path><path stroke="#000000" stroke-width="1.0" stroke-linejoin="round" stroke-linecap="butt" d="m375.50394 459.9685l129.73227 0l0 52.31494l-129.73227 0z" fill-rule="evenodd"></path><path fill="#000000" d="m420.55273 479.796l4.734375 11.625l4.71875 -11.625l1.359375 0l-5.515625 13.25l-1.140625 0l-5.515625 -13.25l1.359375 0zm12.464478 13.25l0 -9.71875l1.265625 0l0 9.71875l-1.265625 0zm0 -11.75l0 -1.875l1.265625 0l0 1.875l-1.265625 0zm8.254578 11.9375q-1.0625 0 -1.953125 -0.390625q-0.875 -0.40625 -1.53125 -1.109375q-0.65625 -0.703125 -1.015625 -1.609375q-0.359375 -0.921875 -0.359375 -1.96875q0 -1.015625 0.359375 -1.921875q0.359375 -0.90625 1.0 -1.578125q0.65625 -0.6875 1.546875 -1.09375q0.890625 -0.40625 1.9375 -0.40625q1.0625 0 1.9375 0.40625q0.890625 0.40625 1.53125 1.09375q0.640625 0.6875 0.984375 1.59375q0.359375 0.890625 0.359375 1.890625q0 0.15625 0 0.3125q0 0.140625 -0.015625 0.1875l-8.328125 0q0.0625 0.78125 0.359375 1.453125q0.3125 0.65625 0.796875 1.140625q0.484375 0.484375 1.109375 0.765625q0.625 0.265625 1.34375 0.265625q0.46875 0 0.921875 -0.125q0.46875 -0.140625 0.859375 -0.359375q0.390625 -0.234375 0.703125 -0.546875q0.328125 -0.328125 0.5 -0.71875l1.09375 0.296875q-0.21875 0.53125 -0.640625 0.96875q-0.40625 0.4375 -0.953125 0.765625q-0.53125 0.328125 -1.1875 0.5q-0.640625 0.1875 -1.359375 0.1875zm3.578125 -5.5625q-0.046875 -0.78125 -0.359375 -1.421875q-0.3125 -0.640625 -0.78125 -1.109375q-0.46875 -0.46875 -1.09375 -0.734375q-0.625 -0.265625 -1.34375 -0.265625q-0.703125 0 -1.34375 0.265625q-0.625 0.265625 -1.109375 0.734375q-0.46875 0.46875 -0.765625 1.125q-0.28125 0.640625 -0.34375 1.40625l7.140625 0zm15.419952 -4.34375l1.25 0l-4.1875 9.71875l-1.046875 0l-2.078125 -4.96875l-2.078125 4.96875l-1.046875 0l-4.171875 -9.71875l1.234375 0l3.546875 8.40625l1.84375 -4.4375l-1.65625 -3.953125l1.0625 0l1.265625 3.171875l1.265625 -3.171875l1.078125 0l-1.65625 3.953125l1.84375 4.4375l3.53125 -8.40625z" fill-rule="nonzero"></path><path fill="#000000" fill-opacity="0.0" d="m243.08136 54.28478l-159.18109 0l0 157.82677" fill-rule="evenodd"></path><path stroke="#000000" stroke-width="1.0" stroke-linejoin="round" stroke-linecap="butt" d="m243.08136 54.28478l-159.18109 0l0 154.39969" fill-rule="evenodd"></path><path fill="#000000" stroke="#000000" stroke-width="1.0" stroke-linecap="butt" d="m83.90026 208.68446l-1.1245804 -1.124588l1.1245804 3.0897675l1.124588 -3.0897675z" fill-rule="evenodd"></path><path fill="#d9ead3" d="m564.64307 438.22046l129.73224 0l0 52.314972l-129.73224 0z" fill-rule="evenodd"></path><path stroke="#000000" stroke-width="1.0" stroke-linejoin="round" stroke-linecap="butt" d="m564.64307 438.22046l129.73224 0l0 52.314972l-129.73224 0z" fill-rule="evenodd"></path><path fill="#000000" d="m609.69183 458.04794l4.734375 11.625l4.71875 -11.625l1.359375 0l-5.515625 13.25l-1.140625 0l-5.515625 -13.25l1.359375 0zm12.464478 13.25l0 -9.71875l1.265625 0l0 9.71875l-1.265625 0zm0 -11.75l0 -1.875l1.265625 0l0 1.875l-1.265625 0zm8.254578 11.9375q-1.0625 0 -1.953125 -0.390625q-0.875 -0.40625 -1.53125 -1.109375q-0.65625 -0.703125 -1.015625 -1.609375q-0.359375 -0.921875 -0.359375 -1.96875q0 -1.015625 0.359375 -1.921875q0.359375 -0.90625 1.0 -1.578125q0.65625 -0.6875 1.546875 -1.09375q0.890625 -0.40625 1.9375 -0.40625q1.0625 0 1.9375 0.40625q0.890625 0.40625 1.53125 1.09375q0.640625 0.6875 0.984375 1.59375q0.359375 0.890625 0.359375 1.890625q0 0.15625 0 0.3125q0 0.140625 -0.015625 0.1875l-8.328125 0q0.0625 0.78125 0.359375 1.453125q0.3125 0.65625 0.796875 1.140625q0.484375 0.484375 1.109375 0.765625q0.625 0.265625 1.34375 0.265625q0.46875 0 0.921875 -0.125q0.46875 -0.140625 0.859375 -0.359375q0.390625 -0.234375 0.703125 -0.546875q0.328125 -0.328125 0.5 -0.71875l1.09375 0.296875q-0.21875 0.53125 -0.640625 0.96875q-0.40625 0.4375 -0.953125 0.765625q-0.53125 0.328125 -1.1875 0.5q-0.640625 0.1875 -1.359375 0.1875zm3.578125 -5.5625q-0.046875 -0.78125 -0.359375 -1.421875q-0.3125 -0.640625 -0.78125 -1.109375q-0.46875 -0.46875 -1.09375 -0.734375q-0.625 -0.265625 -1.34375 -0.265625q-0.703125 0 -1.34375 0.265625q-0.625 0.265625 -1.109375 0.734375q-0.46875 0.46875 -0.765625 1.125q-0.28125 0.640625 -0.34375 1.40625l7.140625 0zm15.419983 -4.34375l1.25 0l-4.1875 9.71875l-1.046875 0l-2.078125 -4.96875l-2.078125 4.96875l-1.046875 0l-4.171875 -9.71875l1.234375 0l3.546875 8.40625l1.84375 -4.4375l-1.65625 -3.953125l1.0625 0l1.265625 3.171875l1.265625 -3.171875l1.078125 0l-1.65625 3.953125l1.84375 4.4375l3.53125 -8.40625z" fill-rule="nonzero"></path><path fill="#000000" fill-opacity="0.0" d="m553.27936 213.35695l0 -159.08661l-137.51181 0" fill-rule="evenodd"></path><path stroke="#000000" stroke-width="1.0" stroke-linejoin="round" stroke-linecap="butt" stroke-dasharray="8.0,3.0,1.0,3.0" d="m553.27936 213.35695l0 -159.08661l-134.08472 0" fill-rule="evenodd"></path><path fill="#000000" stroke="#000000" stroke-width="1.0" stroke-linecap="butt" d="m419.19464 54.27034l1.1245728 -1.1245842l-3.0897522 1.1245842l3.0897522 1.1245842z" fill-rule="evenodd"></path><path fill="#000000" fill-opacity="0.0" d="m148.7664 238.26903l56.92021 0l0 -80.0l56.906555 0" fill-rule="evenodd"></path><path stroke="#000000" stroke-width="1.0" stroke-linejoin="round" stroke-linecap="butt" stroke-dasharray="8.0,3.0,1.0,3.0" d="m148.7664 238.26903l56.92021 0l0 -80.0l53.479492 0" fill-rule="evenodd"></path><path fill="#000000" stroke="#000000" stroke-width="1.0" stroke-linecap="butt" d="m259.16608 158.26903l-1.1245728 1.124588l3.0897827 -1.124588l-3.0897827 -1.124588z" fill-rule="evenodd"></path><path fill="#000000" fill-opacity="0.0" d="m148.7664 238.26903l56.92021 0l0 80.000015l56.906555 0" fill-rule="evenodd"></path><path stroke="#000000" stroke-width="1.0" stroke-linejoin="round" stroke-linecap="butt" stroke-dasharray="8.0,3.0,1.0,3.0" d="m148.7664 238.26903l56.92021 0l0 80.000015l53.479492 0" fill-rule="evenodd"></path><path fill="#000000" stroke="#000000" stroke-width="1.0" stroke-linecap="butt" d="m259.16608 318.26904l-1.1245728 1.1245728l3.0897827 -1.1245728l-3.0897827 -1.1246033z" fill-rule="evenodd"></path><path fill="#000000" fill-opacity="0.0" d="m148.77953 238.20735l56.91339 0l0 0.06298828l56.913376 0" fill-rule="evenodd"></path><path stroke="#000000" stroke-width="1.0" stroke-linejoin="round" stroke-linecap="butt" stroke-dasharray="8.0,3.0,1.0,3.0" d="m148.77953 238.20735l56.91339 0l0 0.06298828l53.486313 0" fill-rule="evenodd"></path><path fill="#000000" stroke="#000000" stroke-width="1.0" stroke-linecap="butt" d="m259.1792 238.27034l-1.1245728 1.124588l3.0897827 -1.124588l-3.0897827 -1.124588z" fill-rule="evenodd"></path><path fill="#000000" fill-opacity="0.0" d="m392.3386 158.27034c24.017181 0 36.02649 20.314957 48.034363 40.62993c12.007874 20.314957 24.014313 40.629913 48.028625 40.629913" fill-rule="evenodd"></path><path stroke="#000000" stroke-width="1.0" stroke-linejoin="round" stroke-linecap="butt" stroke-dasharray="8.0,3.0,1.0,3.0" d="m392.3386 158.27034c24.017181 0 36.02649 20.314957 48.034363 40.62993c6.003937 10.157471 12.007507 20.314957 19.511902 27.93306c3.7521973 3.8090668 7.8795776 6.9832764 12.569824 9.205215c2.3450928 1.1109772 4.830963 1.9838867 7.4809265 2.5790558c1.3250122 0.29759216 2.6910706 0.5257263 4.1010437 0.6794739c0.17626953 0.019226074 0.35324097 0.03729248 0.5308533 0.054153442l0.40997314 0.036117554" fill-rule="evenodd"></path><path fill="#000000" stroke="#000000" stroke-width="1.0" stroke-linecap="butt" d="m484.97748 239.38734l-1.1705017 1.0767365l3.1339722 -0.9948273l-3.0402222 -1.2523804z" fill-rule="evenodd"></path><path fill="#000000" fill-opacity="0.0" d="m392.3386 238.27034c24.017181 0 36.02649 0.31495667 48.034363 0.6299286c12.007874 0.31495667 24.014313 0.62991333 48.028625 0.62991333" fill-rule="evenodd"></path><path stroke="#000000" stroke-width="1.0" stroke-linejoin="round" stroke-linecap="butt" stroke-dasharray="8.0,3.0,1.0,3.0" d="m392.3386 238.27034c24.017181 0 36.02649 0.31495667 48.034363 0.6299286c6.003937 0.1574707 12.007507 0.31495667 19.511902 0.4330597c3.7521973 0.059066772 7.8795776 0.10827637 12.569824 0.14271545c2.3450928 0.017227173 4.830963 0.030761719 7.4809265 0.039993286c1.3250122 0.0046081543 2.6910706 0.008163452 4.1010437 0.010543823l0.9378357 7.7819824E-4" fill-rule="evenodd"></path><path fill="#000000" stroke="#000000" stroke-width="1.0" stroke-linecap="butt" d="m484.9745 239.52734l-1.1255188 1.1236572l3.0906982 -1.1220245l-3.0888367 -1.1271515z" fill-rule="evenodd"></path><path fill="#000000" fill-opacity="0.0" d="m392.3386 318.27036c24.017181 0 36.02649 -19.685059 48.034363 -39.370087c12.007874 -19.685059 24.014313 -39.370087 48.028625 -39.370087" fill-rule="evenodd"></path><path stroke="#000000" stroke-width="1.0" stroke-linejoin="round" stroke-linecap="butt" stroke-dasharray="8.0,3.0,1.0,3.0" d="m392.3386 318.27036c24.017181 0 36.02649 -19.685059 48.034363 -39.370087c6.003937 -9.842529 12.007507 -19.685059 19.511902 -27.06694c3.7521973 -3.6909332 7.8795776 -6.7667236 12.569824 -8.919785c2.3450928 -1.0765228 4.830963 -1.9223633 7.4809265 -2.4990692c1.3250122 -0.2883606 2.6910706 -0.50942993 4.1010437 -0.6584015c0.17626953 -0.01864624 0.35324097 -0.036132812 0.5308533 -0.052490234l0.40979004 -0.034988403" fill-rule="evenodd"></path><path fill="#000000" stroke="#000000" stroke-width="1.0" stroke-linecap="butt" d="m484.9773 239.66861l-1.0782471 1.1690826l3.041809 -1.2484589l-3.13266 -0.99887085z" fill-rule="evenodd"></path><path fill="#000000" fill-opacity="0.0" d="m553.27295 265.67453c0 19.435791 -14.307068 29.15506 -28.614136 38.871582c-14.307098 9.716553 -28.614197 19.430359 -28.614197 38.860718" fill-rule="evenodd"></path><path stroke="#000000" stroke-width="1.0" stroke-linejoin="round" stroke-linecap="butt" stroke-dasharray="8.0,3.0,1.0,3.0" d="m553.27295 265.67453c0 19.435822 -14.307068 29.15506 -28.614136 38.871582c-7.1535645 4.8582764 -14.307098 9.715851 -19.672272 15.787659c-2.6825867 3.0359497 -4.9180603 6.3753967 -6.4828796 10.170288c-0.7824402 1.8974304 -1.3971863 3.908722 -1.8163147 6.0528564c-0.20962524 1.0720825 -0.3703003 2.1773682 -0.47857666 3.3182068l-0.0095825195 0.10809326" fill-rule="evenodd"></path><path fill="#000000" stroke="#000000" stroke-width="1.0" stroke-linecap="butt" d="m496.1992 339.98322l-1.0727234 -1.1741638l0.98410034 3.1373596l1.2627869 -3.0359192z" fill-rule="evenodd"></path><path fill="#000000" fill-opacity="0.0" d="m553.27295 265.67453c0 43.136444 19.062988 64.70596 38.125977 86.27289c19.062988 21.566956 38.126038 43.131287 38.126038 86.26254" fill-rule="evenodd"></path><path stroke="#000000" stroke-width="1.0" stroke-linejoin="round" stroke-linecap="butt" stroke-dasharray="8.0,3.0,1.0,3.0" d="m553.27295 265.67453c0 43.136444 19.062988 64.70596 38.125977 86.27289c9.531494 10.783478 19.062988 21.566284 26.211609 35.044678c3.5743408 6.7391663 6.5529175 14.152222 8.637939 22.576172c1.0425415 4.2120056 1.8616333 8.676727 2.420105 13.436279c0.27923584 2.3797913 0.49334717 4.8332825 0.6376343 7.3657837c0.07208252 1.2662354 0.12683105 2.552246 0.16345215 3.8586426l0.013549805 0.5541687" fill-rule="evenodd"></path><path fill="#000000" stroke="#000000" stroke-width="1.0" stroke-linecap="butt" d="m629.4832 434.78314l-1.1381226 -1.1108093l1.1620483 3.0758362l1.0869141 -3.1032104z" fill-rule="evenodd"></path><path fill="#000000" fill-opacity="0.0" d="m496.02887 395.73227c0 16.059143 -13.913391 24.086792 -27.826782 32.118286c-13.913361 8.031494 -27.826752 16.066864 -27.826752 32.133698" fill-rule="evenodd"></path><path stroke="#000000" stroke-width="1.0" stroke-linejoin="round" stroke-linecap="butt" stroke-dasharray="8.0,3.0,1.0,3.0" d="m496.02887 395.73227c0 16.059143 -13.913391 24.086792 -27.826782 32.118286c-6.9566956 4.015747 -13.913361 8.032471 -19.13089 13.053589c-2.6087646 2.510559 -4.782715 5.2722473 -6.3045044 8.410461c-0.76086426 1.5690918 -1.3587341 3.2322998 -1.7663574 5.005371c-0.101867676 0.44326782 -0.19189453 0.8934021 -0.2696228 1.3506165c-0.03881836 0.2286377 -0.07461548 0.4590454 -0.10726929 0.69125366l-0.026977539 0.20245361" fill-rule="evenodd"></path><path fill="#000000" stroke="#000000" stroke-width="1.0" stroke-linecap="butt" d="m440.59647 456.5643l-1.0496826 -1.1947937l0.9228821 3.1558838l1.3215942 -3.0107727z" fill-rule="evenodd"></path><path fill="#000000" fill-opacity="0.0" d="m560.895 369.5748c34.31494 0 68.629944 34.33072 68.629944 68.66141" fill-rule="evenodd"></path><path stroke="#000000" stroke-width="1.0" stroke-linejoin="round" stroke-linecap="butt" stroke-dasharray="8.0,3.0,1.0,3.0" d="m560.895 369.5748c17.15747 0 34.31494 8.582672 47.183044 21.456696c6.434082 6.4370117 11.795776 13.946838 15.549011 21.993103c1.8765869 4.0231323 3.3510132 8.180359 4.3563843 12.404663c0.5026245 2.112152 0.8880005 4.2410583 1.1477051 6.3783264c0.064941406 0.5343323 0.12200928 1.0691833 0.17114258 1.6044006c0.024475098 0.26763916 0.047058105 0.5353699 0.06762695 0.8031616l0.041137695 0.59588623" fill-rule="evenodd"></path><path fill="#000000" stroke="#000000" stroke-width="1.0" stroke-linecap="butt" d="m629.4111 434.81104l-1.1613159 -1.0866089l1.2266235 3.0506897l1.0213013 -3.1253967z" fill-rule="evenodd"></path><path fill="#000000" fill-opacity="0.0" d="m694.3753 464.37796l24.999146 0l0 -417.9095l-301.66055 0l0 8.996094" fill-rule="evenodd"></path><path stroke="#000000" stroke-width="1.0" stroke-linejoin="round" stroke-linecap="butt" stroke-dasharray="8.0,3.0,1.0,3.0" d="m694.3753 464.37796l24.999146 0l0 -417.9095l-301.66055 0l0 5.569008" fill-rule="evenodd"></path><path fill="#000000" stroke="#000000" stroke-width="1.0" stroke-linecap="butt" d="m417.7139 52.03748l-1.1245728 -1.1245842l1.1245728 3.0897713l1.1246033 -3.0897713z" fill-rule="evenodd"></path></g></svg>

