<?xml version="1.0" standalone="yes"?>

<svg version="1.1" viewBox="0.0 0.0 658.6692913385826 203.51706036745406" fill="none" stroke="none" stroke-linecap="square" stroke-miterlimit="10" xmlns="http://www.w3.org/2000/svg" xmlns:xlink="http://www.w3.org/1999/xlink"><clipPath id="p.0"><path d="m0 0l658.6693 0l0 203.51706l-658.6693 0l0 -203.51706z" clip-rule="nonzero"></path></clipPath><g clip-path="url(#p.0)"><path fill="#000000" fill-opacity="0.0" d="m0 0l658.6693 0l0 203.51706l-658.6693 0z" fill-rule="evenodd"></path><path fill="#fce5cd" d="m16.228346 132.11285l129.73228 0l0 52.314972l-129.73228 0z" fill-rule="evenodd"></path><path stroke="#000000" stroke-width="1.0" stroke-linejoin="round" stroke-linecap="butt" d="m16.228346 132.11285l129.73228 0l0 52.314972l-129.73228 0z" fill-rule="evenodd"></path><path fill="#000000" d="m36.23137 165.19034l0 -13.25l4.5 0q1.59375 0 2.765625 0.53125q1.1875 0.515625 1.984375 1.421875q0.796875 0.890625 1.1875 2.09375q0.40625 1.203125 0.40625 2.5625q0 1.515625 -0.453125 2.734375q-0.4375 1.21875 -1.28125 2.09375q-0.828125 0.859375 -2.0 1.34375q-1.15625 0.46875 -2.609375 0.46875l-4.5 0zm9.53125 -6.640625q0 -1.1875 -0.34375 -2.1875q-0.328125 -1.0 -0.96875 -1.71875q-0.640625 -0.734375 -1.578125 -1.140625q-0.921875 -0.40625 -2.140625 -0.40625l-3.1875 0l0 10.9375l3.1875 0q1.234375 0 2.171875 -0.421875q0.9375 -0.421875 1.578125 -1.15625q0.640625 -0.734375 0.953125 -1.734375q0.328125 -1.0 0.328125 -2.171875zm3.5579681 6.640625l0 -9.71875l1.265625 0l0 9.71875l-1.265625 0zm0 -11.75l0 -1.875l1.265625 0l0 1.875l-1.265625 0zm7.2858124 11.9375q-1.140625 0 -2.21875 -0.375q-1.078125 -0.375 -1.859375 -1.078125l0.578125 -0.859375q0.8125 0.671875 1.65625 1.015625q0.859375 0.328125 1.828125 0.328125q1.171875 0 1.875 -0.46875q0.703125 -0.484375 0.703125 -1.359375q0 -0.40625 -0.1875 -0.671875q-0.1875 -0.28125 -0.5625 -0.484375q-0.359375 -0.203125 -0.90625 -0.359375q-0.546875 -0.171875 -1.28125 -0.328125q-0.828125 -0.21875 -1.453125 -0.421875q-0.609375 -0.203125 -1.015625 -0.453125q-0.40625 -0.265625 -0.609375 -0.640625q-0.1875 -0.390625 -0.1875 -0.96875q0 -0.734375 0.28125 -1.28125q0.296875 -0.5625 0.796875 -0.921875q0.5 -0.375 1.15625 -0.5625q0.65625 -0.1875 1.40625 -0.1875q1.125 0 2.03125 0.375q0.921875 0.359375 1.484375 0.953125l-0.625 0.75q-0.53125 -0.5625 -1.3125 -0.84375q-0.78125 -0.28125 -1.609375 -0.28125q-0.515625 0 -0.9375 0.109375q-0.421875 0.09375 -0.75 0.328125q-0.328125 0.21875 -0.515625 0.5625q-0.1875 0.34375 -0.1875 0.8125q0 0.390625 0.125 0.640625q0.140625 0.234375 0.4375 0.421875q0.296875 0.171875 0.75 0.3125q0.453125 0.140625 1.109375 0.28125q0.9375 0.21875 1.640625 0.453125q0.71875 0.21875 1.1875 0.515625q0.46875 0.296875 0.703125 0.734375q0.25 0.421875 0.25 1.046875q0 1.34375 -1.03125 2.125q-1.015625 0.78125 -2.75 0.78125zm10.819977 0q-1.234375 0 -2.171875 -0.625q-0.9375 -0.625 -1.515625 -1.578125l0 5.984375l-1.265625 0l0 -13.6875l1.125 0l0 1.890625q0.609375 -0.921875 1.546875 -1.484375q0.953125 -0.578125 2.078125 -0.578125q1.0 0 1.84375 0.421875q0.84375 0.421875 1.453125 1.125q0.625 0.6875 0.96875 1.609375q0.34375 0.90625 0.34375 1.890625q0 1.015625 -0.328125 1.9375q-0.3125 0.90625 -0.90625 1.609375q-0.578125 0.6875 -1.390625 1.09375q-0.8125 0.390625 -1.78125 0.390625zm-0.359375 -1.125q0.796875 0 1.4375 -0.328125q0.640625 -0.34375 1.09375 -0.890625q0.46875 -0.546875 0.703125 -1.25q0.25 -0.703125 0.25 -1.4375q0 -0.796875 -0.28125 -1.5q-0.28125 -0.703125 -0.765625 -1.25q-0.484375 -0.546875 -1.15625 -0.859375q-0.65625 -0.3125 -1.421875 -0.3125q-0.484375 0 -1.015625 0.203125q-0.53125 0.1875 -1.0 0.515625q-0.453125 0.328125 -0.78125 0.765625q-0.3125 0.4375 -0.390625 0.921875l0 2.984375q0.21875 0.515625 0.5625 0.96875q0.34375 0.453125 0.78125 0.78125q0.4375 0.3125 0.9375 0.5q0.515625 0.1875 1.046875 0.1875zm9.35466 1.125q-0.6875 0 -1.28125 -0.234375q-0.578125 -0.234375 -1.03125 -0.640625q-0.4375 -0.40625 -0.6875 -0.953125q-0.234375 -0.5625 -0.234375 -1.1875q0 -0.640625 0.296875 -1.171875q0.3125 -0.546875 0.84375 -0.9375q0.546875 -0.390625 1.28125 -0.609375q0.75 -0.21875 1.65625 -0.21875q0.734375 0 1.5 0.140625q0.765625 0.125 1.375 0.359375l0 -0.875q0 -1.28125 -0.734375 -2.03125q-0.734375 -0.765625 -2.015625 -0.765625q-0.75 0 -1.53125 0.296875q-0.78125 0.296875 -1.578125 0.859375l-0.453125 -0.84375q1.890625 -1.265625 3.65625 -1.265625q1.828125 0 2.875 1.03125q1.046875 1.03125 1.046875 2.828125l0 4.390625q0 0.515625 0.46875 0.515625l0 1.125q-0.328125 0.0625 -0.484375 0.0625q-0.484375 0 -0.765625 -0.234375q-0.265625 -0.25 -0.28125 -0.6875l-0.046875 -0.765625q-0.671875 0.875 -1.6875 1.34375q-1.015625 0.46875 -2.1875 0.46875zm0.296875 -0.96875q0.984375 0 1.8125 -0.375q0.84375 -0.375 1.265625 -0.984375q0.171875 -0.171875 0.25 -0.359375q0.09375 -0.203125 0.09375 -0.375l0 -1.578125q-0.640625 -0.25 -1.328125 -0.375q-0.671875 -0.140625 -1.390625 -0.140625q-1.34375 0 -2.1875 0.5625q-0.828125 0.5625 -0.828125 1.484375q0 0.4375 0.171875 0.828125q0.1875 0.390625 0.484375 0.6875q0.3125 0.28125 0.734375 0.453125q0.4375 0.171875 0.921875 0.171875zm12.089539 0.3125q-0.109375 0.0625 -0.328125 0.15625q-0.21875 0.09375 -0.5 0.1875q-0.265625 0.09375 -0.625 0.15625q-0.359375 0.078125 -0.75 0.078125q-0.40625 0 -0.78125 -0.109375q-0.375 -0.109375 -0.65625 -0.34375q-0.28125 -0.234375 -0.453125 -0.578125q-0.15625 -0.359375 -0.15625 -0.828125l0 -6.96875l-1.34375 0l0 -1.0l1.34375 0l0 -3.28125l1.265625 0l0 3.28125l2.234375 0l0 1.0l-2.234375 0l0 6.609375q0.03125 0.546875 0.375 0.796875q0.359375 0.25 0.796875 0.25q0.546875 0 0.953125 -0.171875q0.40625 -0.1875 0.53125 -0.265625l0.328125 1.03125zm0.9217224 -4.421875q0 -1.015625 0.34375 -1.9375q0.359375 -0.921875 1.0 -1.59375q0.640625 -0.6875 1.53125 -1.078125q0.90625 -0.390625 1.984375 -0.390625q1.390625 0 2.40625 0.625q1.03125 0.625 1.546875 1.6875l-1.21875 0.390625q-0.421875 -0.734375 -1.15625 -1.15625q-0.734375 -0.421875 -1.625 -0.421875q-0.75 0 -1.40625 0.296875q-0.640625 0.296875 -1.109375 0.8125q-0.46875 0.515625 -0.75 1.21875q-0.265625 0.703125 -0.265625 1.546875q0 0.828125 0.28125 1.5625q0.28125 0.71875 0.765625 1.25q0.484375 0.53125 1.125 0.84375q0.640625 0.296875 1.375 0.296875q0.46875 0 0.921875 -0.125q0.453125 -0.125 0.84375 -0.359375q0.390625 -0.234375 0.671875 -0.53125q0.28125 -0.296875 0.390625 -0.640625l1.25 0.375q-0.203125 0.515625 -0.59375 0.953125q-0.390625 0.4375 -0.921875 0.765625q-0.53125 0.328125 -1.171875 0.5q-0.640625 0.1875 -1.34375 0.1875q-1.0625 0 -1.953125 -0.390625q-0.890625 -0.40625 -1.546875 -1.109375q-0.65625 -0.703125 -1.015625 -1.609375q-0.359375 -0.921875 -0.359375 -1.96875zm19.08603 4.890625l-1.28125 0l0 -5.421875q0 -1.671875 -0.578125 -2.484375q-0.5625 -0.828125 -1.65625 -0.828125q-0.546875 0 -1.078125 0.21875q-0.53125 0.21875 -1.0 0.59375q-0.453125 0.359375 -0.8125 0.875q-0.34375 0.5 -0.5 1.09375l0 5.953125l-1.265625 0l0 -13.625l1.265625 0l0 6.109375q0.578125 -1.109375 1.59375 -1.734375q1.03125 -0.640625 2.234375 -0.640625q0.828125 0 1.40625 0.3125q0.578125 0.3125 0.953125 0.859375q0.375 0.546875 0.546875 1.328125q0.171875 0.765625 0.171875 1.703125l0 5.6875zm6.892227 0.1875q-1.0625 0 -1.953125 -0.390625q-0.875 -0.40625 -1.53125 -1.109375q-0.65625 -0.703125 -1.015625 -1.609375q-0.359375 -0.921875 -0.359375 -1.96875q0 -1.015625 0.359375 -1.921875q0.359375 -0.90625 1.0 -1.578125q0.65625 -0.6875 1.546875 -1.09375q0.890625 -0.40625 1.9375 -0.40625q1.0625 0 1.9375 0.40625q0.890625 0.40625 1.53125 1.09375q0.640625 0.6875 0.984375 1.59375q0.359375 0.890625 0.359375 1.890625q0 0.15625 0 0.3125q0 0.140625 -0.015625 0.1875l-8.328125 0q0.0625 0.78125 0.359375 1.453125q0.3125 0.65625 0.796875 1.140625q0.484375 0.484375 1.109375 0.765625q0.625 0.265625 1.34375 0.265625q0.46875 0 0.921875 -0.125q0.46875 -0.140625 0.859375 -0.359375q0.390625 -0.234375 0.703125 -0.546875q0.328125 -0.328125 0.5 -0.71875l1.09375 0.296875q-0.21875 0.53125 -0.640625 0.96875q-0.40625 0.4375 -0.953125 0.765625q-0.53125 0.328125 -1.1875 0.5q-0.640625 0.1875 -1.359375 0.1875zm3.578125 -5.5625q-0.046875 -0.78125 -0.359375 -1.421875q-0.3125 -0.640625 -0.78125 -1.109375q-0.46875 -0.46875 -1.09375 -0.734375q-0.625 -0.265625 -1.34375 -0.265625q-0.703125 0 -1.34375 0.265625q-0.625 0.265625 -1.109375 0.734375q-0.46875 0.46875 -0.765625 1.125q-0.28125 0.640625 -0.34375 1.40625l7.140625 0zm8.029343 -3.21875q-1.28125 0.03125 -2.234375 0.703125q-0.953125 0.671875 -1.34375 1.84375l0 6.046875l-1.265625 0l0 -9.71875l1.1875 0l0 2.328125q0.546875 -1.109375 1.453125 -1.75q0.921875 -0.640625 1.953125 -0.640625q0.15625 0 0.25 0.03125l0 1.15625z" fill-rule="nonzero"></path><path fill="#fff2cc" d="m262.6063 132.11285l129.7323 0l0 52.314972l-129.7323 0z" fill-rule="evenodd"></path><path stroke="#000000" stroke-width="1.0" stroke-linejoin="round" stroke-linecap="butt" d="m262.6063 132.11285l129.7323 0l0 52.314972l-129.7323 0z" fill-rule="evenodd"></path><path fill="#000000" d="m313.7916 154.42471q-0.5625 -0.640625 -1.5 -1.03125q-0.921875 -0.390625 -2.125 -0.390625q-1.75 0 -2.5625 0.671875q-0.796875 0.65625 -0.796875 1.796875q0 0.59375 0.21875 0.984375q0.21875 0.375 0.65625 0.65625q0.453125 0.28125 1.15625 0.484375q0.703125 0.203125 1.640625 0.40625q1.0625 0.234375 1.90625 0.515625q0.859375 0.265625 1.453125 0.6875q0.609375 0.421875 0.921875 1.03125q0.3125 0.59375 0.3125 1.484375q0 0.90625 -0.359375 1.578125q-0.34375 0.671875 -0.984375 1.125q-0.625 0.453125 -1.515625 0.671875q-0.875 0.203125 -1.921875 0.203125q-3.078125 0 -5.3125 -1.921875l0.65625 -1.0625q0.359375 0.375 0.84375 0.71875q0.5 0.328125 1.109375 0.578125q0.609375 0.25 1.296875 0.390625q0.6875 0.140625 1.453125 0.140625q1.578125 0 2.46875 -0.5625q0.890625 -0.578125 0.890625 -1.734375q0 -0.609375 -0.25 -1.03125q-0.25 -0.421875 -0.765625 -0.71875q-0.5 -0.3125 -1.25 -0.53125q-0.734375 -0.234375 -1.734375 -0.453125q-1.046875 -0.25 -1.828125 -0.5q-0.78125 -0.265625 -1.328125 -0.65625q-0.53125 -0.390625 -0.8125 -0.9375q-0.265625 -0.5625 -0.265625 -1.359375q0 -0.921875 0.34375 -1.640625q0.34375 -0.71875 0.984375 -1.1875q0.640625 -0.46875 1.484375 -0.71875q0.859375 -0.265625 1.90625 -0.265625q1.328125 0 2.359375 0.40625q1.046875 0.40625 1.875 1.125l-0.625 1.046875zm7.980591 10.296875q-0.109375 0.0625 -0.328125 0.15625q-0.21875 0.09375 -0.5 0.1875q-0.265625 0.09375 -0.625 0.15625q-0.359375 0.078125 -0.75 0.078125q-0.40625 0 -0.78125 -0.109375q-0.375 -0.109375 -0.65625 -0.34375q-0.28125 -0.234375 -0.453125 -0.578125q-0.15625 -0.359375 -0.15625 -0.828125l0 -6.96875l-1.34375 0l0 -1.0l1.34375 0l0 -3.28125l1.265625 0l0 3.28125l2.234375 0l0 1.0l-2.234375 0l0 6.609375q0.03125 0.546875 0.375 0.796875q0.359375 0.25 0.796875 0.25q0.546875 0 0.953125 -0.171875q0.40625 -0.1875 0.53125 -0.265625l0.328125 1.03125zm5.7342224 0.65625q-1.0625 0 -1.953125 -0.390625q-0.875 -0.40625 -1.515625 -1.09375q-0.640625 -0.703125 -1.0 -1.609375q-0.34375 -0.921875 -0.34375 -1.921875q0 -1.03125 0.359375 -1.9375q0.359375 -0.921875 1.0 -1.609375q0.65625 -0.6875 1.53125 -1.09375q0.875 -0.421875 1.921875 -0.421875q1.03125 0 1.921875 0.421875q0.890625 0.40625 1.53125 1.09375q0.640625 0.6875 1.0 1.609375q0.375 0.90625 0.375 1.9375q0 1.0 -0.359375 1.921875q-0.359375 0.90625 -1.0 1.609375q-0.640625 0.6875 -1.53125 1.09375q-0.875 0.390625 -1.9375 0.390625zm-3.53125 -5.0q0 0.8125 0.28125 1.515625q0.28125 0.703125 0.75 1.234375q0.484375 0.53125 1.125 0.828125q0.640625 0.296875 1.375 0.296875q0.71875 0 1.359375 -0.296875q0.65625 -0.3125 1.140625 -0.84375q0.484375 -0.53125 0.75 -1.234375q0.28125 -0.71875 0.28125 -1.53125q0 -0.8125 -0.28125 -1.53125q-0.265625 -0.71875 -0.75 -1.25q-0.484375 -0.53125 -1.140625 -0.828125q-0.640625 -0.3125 -1.359375 -0.3125q-0.734375 0 -1.375 0.3125q-0.625 0.296875 -1.109375 0.84375q-0.484375 0.53125 -0.765625 1.25q-0.28125 0.71875 -0.28125 1.546875zm15.334839 -3.78125q-1.28125 0.03125 -2.234375 0.703125q-0.953125 0.671875 -1.34375 1.84375l0 6.046875l-1.265625 0l0 -9.71875l1.1875 0l0 2.328125q0.546875 -1.109375 1.453125 -1.75q0.921875 -0.640625 1.953125 -0.640625q0.15625 0 0.25 0.03125l0 1.15625zm5.89209 8.78125q-1.0625 0 -1.953125 -0.390625q-0.875 -0.40625 -1.53125 -1.109375q-0.65625 -0.703125 -1.015625 -1.609375q-0.359375 -0.921875 -0.359375 -1.96875q0 -1.015625 0.359375 -1.921875q0.359375 -0.90625 1.0 -1.578125q0.65625 -0.6875 1.546875 -1.09375q0.890625 -0.40625 1.9375 -0.40625q1.0625 0 1.9375 0.40625q0.890625 0.40625 1.53125 1.09375q0.640625 0.6875 0.984375 1.59375q0.359375 0.890625 0.359375 1.890625q0 0.15625 0 0.3125q0 0.140625 -0.015625 0.1875l-8.328125 0q0.0625 0.78125 0.359375 1.453125q0.3125 0.65625 0.796875 1.140625q0.484375 0.484375 1.109375 0.765625q0.625 0.265625 1.34375 0.265625q0.46875 0 0.921875 -0.125q0.46875 -0.140625 0.859375 -0.359375q0.390625 -0.234375 0.703125 -0.546875q0.328125 -0.328125 0.5 -0.71875l1.09375 0.296875q-0.21875 0.53125 -0.640625 0.96875q-0.40625 0.4375 -0.953125 0.765625q-0.53125 0.328125 -1.1875 0.5q-0.640625 0.1875 -1.359375 0.1875zm3.578125 -5.5625q-0.046875 -0.78125 -0.359375 -1.421875q-0.3125 -0.640625 -0.78125 -1.109375q-0.46875 -0.46875 -1.09375 -0.734375q-0.625 -0.265625 -1.34375 -0.265625q-0.703125 0 -1.34375 0.265625q-0.625 0.265625 -1.109375 0.734375q-0.46875 0.46875 -0.765625 1.125q-0.28125 0.640625 -0.34375 1.40625l7.140625 0z" fill-rule="nonzero"></path><path fill="#d9ead3" d="m508.98425 132.11285l129.7323 0l0 52.314972l-129.7323 0z" fill-rule="evenodd"></path><path stroke="#000000" stroke-width="1.0" stroke-linejoin="round" stroke-linecap="butt" d="m508.98425 132.11285l129.7323 0l0 52.314972l-129.7323 0z" fill-rule="evenodd"></path><path fill="#000000" d="m554.0331 151.94034l4.734375 11.625l4.71875 -11.625l1.359375 0l-5.515625 13.25l-1.140625 0l-5.515625 -13.25l1.359375 0zm12.464478 13.25l0 -9.71875l1.265625 0l0 9.71875l-1.265625 0zm0 -11.75l0 -1.875l1.265625 0l0 1.875l-1.265625 0zm8.254517 11.9375q-1.0625 0 -1.953125 -0.390625q-0.875 -0.40625 -1.53125 -1.109375q-0.65625 -0.703125 -1.015625 -1.609375q-0.359375 -0.921875 -0.359375 -1.96875q0 -1.015625 0.359375 -1.921875q0.359375 -0.90625 1.0 -1.578125q0.65625 -0.6875 1.546875 -1.09375q0.890625 -0.40625 1.9375 -0.40625q1.0625 0 1.9375 0.40625q0.890625 0.40625 1.53125 1.09375q0.640625 0.6875 0.984375 1.59375q0.359375 0.890625 0.359375 1.890625q0 0.15625 0 0.3125q0 0.140625 -0.015625 0.1875l-8.328125 0q0.0625 0.78125 0.359375 1.453125q0.3125 0.65625 0.796875 1.140625q0.484375 0.484375 1.109375 0.765625q0.625 0.265625 1.34375 0.265625q0.46875 0 0.921875 -0.125q0.46875 -0.140625 0.859375 -0.359375q0.390625 -0.234375 0.703125 -0.546875q0.328125 -0.328125 0.5 -0.71875l1.09375 0.296875q-0.21875 0.53125 -0.640625 0.96875q-0.40625 0.4375 -0.953125 0.765625q-0.53125 0.328125 -1.1875 0.5q-0.640625 0.1875 -1.359375 0.1875zm3.578125 -5.5625q-0.046875 -0.78125 -0.359375 -1.421875q-0.3125 -0.640625 -0.78125 -1.109375q-0.46875 -0.46875 -1.09375 -0.734375q-0.625 -0.265625 -1.34375 -0.265625q-0.703125 0 -1.34375 0.265625q-0.625 0.265625 -1.109375 0.734375q-0.46875 0.46875 -0.765625 1.125q-0.28125 0.640625 -0.34375 1.40625l7.140625 0zm15.419983 -4.34375l1.25 0l-4.1875 9.71875l-1.046875 0l-2.078125 -4.96875l-2.078125 4.96875l-1.046875 0l-4.171875 -9.71875l1.234375 0l3.546875 8.40625l1.84375 -4.4375l-1.65625 -3.953125l1.0625 0l1.265625 3.171875l1.265625 -3.171875l1.078125 0l-1.65625 3.953125l1.84375 4.4375l3.53125 -8.40625z" fill-rule="nonzero"></path><path fill="#000000" fill-opacity="0.0" d="m145.96063 158.27034l116.66141 0" fill-rule="evenodd"></path><path stroke="#000000" stroke-width="1.0" stroke-linejoin="round" stroke-linecap="butt" d="m145.96063 158.27034l110.66141 0" fill-rule="evenodd"></path><path fill="#000000" stroke="#000000" stroke-width="1.0" stroke-linecap="butt" d="m256.62204 159.92207l4.5381165 -1.6517334l-4.5381165 -1.6517334z" fill-rule="evenodd"></path><path fill="#000000" fill-opacity="0.0" d="m392.3386 169.27034l116.66141 0" fill-rule="evenodd"></path><path stroke="#000000" stroke-width="1.0" stroke-linejoin="round" stroke-linecap="butt" d="m392.3386 169.27034l110.66141 0" fill-rule="evenodd"></path><path fill="#000000" stroke="#000000" stroke-width="1.0" stroke-linecap="butt" d="m503.0 170.92207l4.538086 -1.6517334l-4.538086 -1.6517334z" fill-rule="evenodd"></path><path fill="#000000" fill-opacity="0.0" d="m392.3386 149.27034l116.66141 0" fill-rule="evenodd"></path><path stroke="#000000" stroke-width="1.0" stroke-linejoin="round" stroke-linecap="butt" stroke-dasharray="4.0,3.0,1.0,3.0" d="m395.76566 149.27034l113.234344 0" fill-rule="evenodd"></path><path fill="#000000" stroke="#000000" stroke-width="1.0" stroke-linecap="butt" d="m395.76566 149.27034l1.1246033 -1.124588l-3.0897827 1.124588l3.0897827 1.124588z" fill-rule="evenodd"></path><path fill="#000000" fill-opacity="0.0" d="m148.7664 126.47769l112.25197 0l0 32.7874l-112.25197 0z" fill-rule="evenodd"></path><path fill="#000000" d="m181.6932 150.99394q-0.59375 0 -1.09375 -0.1875q-0.5 -0.203125 -0.890625 -0.546875q-0.375 -0.359375 -0.578125 -0.828125q-0.203125 -0.484375 -0.203125 -1.03125q0 -0.53125 0.25 -1.0q0.265625 -0.46875 0.71875 -0.796875q0.46875 -0.34375 1.109375 -0.515625q0.640625 -0.1875 1.40625 -0.1875q0.640625 0 1.296875 0.109375q0.65625 0.109375 1.171875 0.3125l0 -0.75q0 -1.109375 -0.625 -1.75q-0.625 -0.640625 -1.734375 -0.640625q-0.640625 0 -1.3125 0.25q-0.671875 0.25 -1.359375 0.734375l-0.375 -0.71875q1.609375 -1.09375 3.125 -1.09375q1.578125 0 2.46875 0.890625q0.890625 0.875 0.890625 2.421875l0 3.765625q0 0.453125 0.40625 0.453125l0 0.953125q-0.265625 0.046875 -0.421875 0.046875q-0.40625 0 -0.640625 -0.203125q-0.234375 -0.21875 -0.25 -0.578125l-0.03125 -0.65625q-0.578125 0.75 -1.453125 1.15625q-0.875 0.390625 -1.875 0.390625zm0.25 -0.828125q0.859375 0 1.5625 -0.3125q0.71875 -0.328125 1.078125 -0.859375q0.15625 -0.140625 0.21875 -0.296875q0.078125 -0.171875 0.078125 -0.328125l0 -1.359375q-0.546875 -0.203125 -1.140625 -0.3125q-0.578125 -0.109375 -1.1875 -0.109375q-1.140625 0 -1.875 0.484375q-0.71875 0.46875 -0.71875 1.25q0 0.390625 0.15625 0.734375q0.15625 0.328125 0.421875 0.578125q0.265625 0.25 0.625 0.390625q0.375 0.140625 0.78125 0.140625zm5.7981415 -3.515625q0 -0.890625 0.296875 -1.671875q0.3125 -0.78125 0.859375 -1.359375q0.5625 -0.59375 1.328125 -0.921875q0.765625 -0.34375 1.6875 -0.34375q1.1875 0 2.0625 0.546875q0.890625 0.53125 1.328125 1.4375l-1.046875 0.34375q-0.359375 -0.640625 -1.0 -1.0q-0.625 -0.359375 -1.390625 -0.359375q-0.640625 0 -1.1875 0.25q-0.546875 0.25 -0.96875 0.703125q-0.40625 0.4375 -0.640625 1.046875q-0.21875 0.609375 -0.21875 1.328125q0 0.703125 0.234375 1.328125q0.234375 0.625 0.65625 1.078125q0.421875 0.453125 0.96875 0.71875q0.546875 0.265625 1.171875 0.265625q0.40625 0 0.796875 -0.109375q0.390625 -0.125 0.71875 -0.3125q0.34375 -0.203125 0.578125 -0.453125q0.25 -0.265625 0.34375 -0.546875l1.0625 0.3125q-0.171875 0.453125 -0.515625 0.828125q-0.328125 0.375 -0.78125 0.65625q-0.453125 0.28125 -1.015625 0.421875q-0.546875 0.15625 -1.140625 0.15625q-0.90625 0 -1.671875 -0.34375q-0.765625 -0.34375 -1.328125 -0.9375q-0.5625 -0.609375 -0.875 -1.390625q-0.3125 -0.78125 -0.3125 -1.671875zm13.362137 3.78125q-0.09375 0.046875 -0.28125 0.140625q-0.1875 0.078125 -0.4375 0.15625q-0.234375 0.078125 -0.546875 0.140625q-0.296875 0.0625 -0.625 0.0625q-0.359375 0 -0.6875 -0.09375q-0.3125 -0.09375 -0.546875 -0.296875q-0.234375 -0.203125 -0.390625 -0.5q-0.140625 -0.3125 -0.140625 -0.703125l0 -5.96875l-1.140625 0l0 -0.875l1.140625 0l0 -2.8125l1.09375 0l0 2.8125l1.921875 0l0 0.875l-1.921875 0l0 5.65625q0.03125 0.46875 0.328125 0.6875q0.296875 0.21875 0.671875 0.21875q0.46875 0 0.8125 -0.15625q0.359375 -0.15625 0.453125 -0.21875l0.296875 0.875zm1.3600159 0.40625l0 -8.34375l1.078125 0l0 8.34375l-1.078125 0zm0 -10.078125l0 -1.609375l1.078125 0l0 1.609375l-1.078125 0zm7.0348816 10.234375q-0.90625 0 -1.65625 -0.34375q-0.75 -0.34375 -1.3125 -0.9375q-0.546875 -0.59375 -0.859375 -1.375q-0.296875 -0.78125 -0.296875 -1.640625q0 -0.890625 0.3125 -1.671875q0.3125 -0.78125 0.859375 -1.375q0.5625 -0.59375 1.3125 -0.9375q0.75 -0.359375 1.640625 -0.359375q0.890625 0 1.65625 0.359375q0.765625 0.34375 1.3125 0.9375q0.546875 0.59375 0.859375 1.375q0.3125 0.78125 0.3125 1.671875q0 0.859375 -0.3125 1.640625q-0.296875 0.78125 -0.84375 1.375q-0.546875 0.59375 -1.3125 0.9375q-0.765625 0.34375 -1.671875 0.34375zm-3.015625 -4.28125q0 0.703125 0.234375 1.3125q0.234375 0.59375 0.640625 1.046875q0.421875 0.453125 0.96875 0.71875q0.546875 0.25 1.171875 0.25q0.625 0 1.171875 -0.265625q0.5625 -0.265625 0.96875 -0.71875q0.421875 -0.453125 0.65625 -1.0625q0.25 -0.609375 0.25 -1.3125q0 -0.6875 -0.25 -1.296875q-0.234375 -0.625 -0.65625 -1.078125q-0.40625 -0.453125 -0.96875 -0.71875q-0.546875 -0.265625 -1.171875 -0.265625q-0.625 0 -1.171875 0.265625q-0.53125 0.265625 -0.953125 0.734375q-0.421875 0.453125 -0.65625 1.078125q-0.234375 0.609375 -0.234375 1.3125zm15.98877 4.125l-1.078125 0l0 -4.65625q0 -1.484375 -0.453125 -2.15625q-0.4375 -0.671875 -1.34375 -0.671875q-0.484375 0 -0.96875 0.171875q-0.46875 0.171875 -0.875 0.5q-0.40625 0.3125 -0.734375 0.765625q-0.3125 0.4375 -0.46875 0.9375l0 5.109375l-1.078125 0l0 -8.34375l0.984375 0l0 1.890625q0.515625 -0.90625 1.46875 -1.46875q0.953125 -0.5625 2.078125 -0.5625q0.6875 0 1.15625 0.265625q0.484375 0.25 0.765625 0.71875q0.296875 0.453125 0.421875 1.125q0.125 0.671875 0.125 1.5l0 4.875zm5.093643 0.15625q-0.984375 0 -1.90625 -0.3125q-0.921875 -0.328125 -1.59375 -0.9375l0.484375 -0.734375q0.703125 0.578125 1.4375 0.875q0.734375 0.28125 1.5625 0.28125q1.0 0 1.59375 -0.40625q0.609375 -0.40625 0.609375 -1.15625q0 -0.359375 -0.15625 -0.59375q-0.15625 -0.234375 -0.46875 -0.40625q-0.3125 -0.171875 -0.796875 -0.3125q-0.46875 -0.140625 -1.09375 -0.28125q-0.71875 -0.171875 -1.25 -0.34375q-0.515625 -0.1875 -0.859375 -0.40625q-0.34375 -0.21875 -0.515625 -0.546875q-0.171875 -0.328125 -0.171875 -0.828125q0 -0.625 0.25 -1.09375q0.25 -0.484375 0.671875 -0.796875q0.421875 -0.3125 0.984375 -0.46875q0.578125 -0.171875 1.21875 -0.171875q0.953125 0 1.734375 0.3125q0.796875 0.3125 1.265625 0.828125l-0.515625 0.640625q-0.46875 -0.484375 -1.140625 -0.71875q-0.65625 -0.234375 -1.375 -0.234375q-0.4375 0 -0.8125 0.09375q-0.359375 0.078125 -0.640625 0.265625q-0.28125 0.1875 -0.4375 0.484375q-0.15625 0.296875 -0.15625 0.703125q0 0.328125 0.109375 0.546875q0.109375 0.203125 0.359375 0.359375q0.265625 0.140625 0.65625 0.265625q0.390625 0.125 0.953125 0.25q0.796875 0.1875 1.40625 0.390625q0.609375 0.1875 1.015625 0.453125q0.40625 0.25 0.609375 0.625q0.21875 0.359375 0.21875 0.875q0 1.15625 -0.890625 1.828125q-0.875 0.671875 -2.359375 0.671875z" fill-rule="nonzero"></path><path fill="#000000" fill-opacity="0.0" d="m394.76642 117.47769l112.25195 0l0 32.7874l-112.25195 0z" fill-rule="evenodd"></path><path fill="#000000" d="m427.78622 141.99394q-0.859375 0 -1.5625 -0.359375q-0.6875 -0.359375 -1.1875 -0.953125q-0.484375 -0.609375 -0.765625 -1.375q-0.265625 -0.78125 -0.265625 -1.625q0 -0.875 0.296875 -1.65625q0.3125 -0.78125 0.84375 -1.375q0.53125 -0.59375 1.265625 -0.9375q0.734375 -0.359375 1.5625 -0.359375q0.484375 0 0.9375 0.140625q0.453125 0.140625 0.84375 0.375q0.40625 0.21875 0.734375 0.546875q0.328125 0.328125 0.578125 0.71875l0 -1.640625l0.96875 0l0 10.296875q0 0.453125 0.40625 0.46875l0 0.9375q-0.171875 0.03125 -0.328125 0.03125q-0.140625 0 -0.28125 0q-0.375 -0.03125 -0.640625 -0.3125q-0.25 -0.28125 -0.25 -0.65625l0 -4.15625q-0.609375 0.9375 -1.40625 1.421875q-0.796875 0.46875 -1.75 0.46875zm0.328125 -0.953125q0.484375 0 0.90625 -0.15625q0.421875 -0.171875 0.78125 -0.421875q0.359375 -0.265625 0.640625 -0.625q0.296875 -0.375 0.5 -0.765625l0 -2.578125q-0.0625 -0.4375 -0.34375 -0.828125q-0.265625 -0.390625 -0.65625 -0.6875q-0.390625 -0.3125 -0.859375 -0.484375q-0.453125 -0.171875 -0.90625 -0.171875q-0.671875 0 -1.234375 0.296875q-0.5625 0.28125 -0.984375 0.75q-0.40625 0.46875 -0.625 1.078125q-0.21875 0.609375 -0.21875 1.25q0 0.671875 0.21875 1.28125q0.21875 0.609375 0.609375 1.0625q0.40625 0.453125 0.953125 0.734375q0.5625 0.265625 1.21875 0.265625zm8.934509 0.953125q-1.359375 0 -2.03125 -0.890625q-0.65625 -0.90625 -0.65625 -2.703125l0 -4.90625l1.078125 0l0 4.71875q0 2.828125 1.9375 2.828125q0.484375 0 0.9375 -0.15625q0.46875 -0.171875 0.859375 -0.46875q0.40625 -0.3125 0.703125 -0.71875q0.3125 -0.421875 0.515625 -0.953125l0 -5.25l1.078125 0l0 6.9375q0 0.453125 0.390625 0.453125l0 0.953125q-0.1875 0.03125 -0.3125 0.03125q-0.125 0 -0.171875 0q-0.375 -0.015625 -0.625 -0.265625q-0.234375 -0.265625 -0.234375 -0.6875l0 -0.96875q-0.546875 0.984375 -1.484375 1.515625q-0.9375 0.53125 -1.984375 0.53125zm10.488403 0q-0.90625 0 -1.671875 -0.34375q-0.75 -0.34375 -1.3125 -0.9375q-0.5625 -0.609375 -0.875 -1.390625q-0.3125 -0.78125 -0.3125 -1.671875q0 -0.890625 0.3125 -1.65625q0.3125 -0.78125 0.859375 -1.359375q0.5625 -0.59375 1.328125 -0.9375q0.765625 -0.34375 1.65625 -0.34375q0.921875 0 1.671875 0.34375q0.765625 0.34375 1.296875 0.9375q0.546875 0.59375 0.84375 1.359375q0.3125 0.765625 0.3125 1.640625q0 0.125 0 0.25q0 0.125 -0.015625 0.171875l-7.125 0q0.046875 0.671875 0.3125 1.25q0.265625 0.5625 0.671875 0.984375q0.421875 0.40625 0.953125 0.640625q0.53125 0.234375 1.140625 0.234375q0.40625 0 0.796875 -0.109375q0.40625 -0.109375 0.734375 -0.296875q0.34375 -0.203125 0.609375 -0.484375q0.28125 -0.28125 0.421875 -0.609375l0.953125 0.25q-0.203125 0.46875 -0.5625 0.84375q-0.34375 0.375 -0.8125 0.65625q-0.453125 0.28125 -1.015625 0.421875q-0.5625 0.15625 -1.171875 0.15625zm3.078125 -4.765625q-0.046875 -0.671875 -0.3125 -1.21875q-0.265625 -0.5625 -0.671875 -0.953125q-0.40625 -0.40625 -0.953125 -0.625q-0.53125 -0.21875 -1.140625 -0.21875q-0.609375 0 -1.15625 0.21875q-0.53125 0.21875 -0.953125 0.625q-0.40625 0.390625 -0.65625 0.953125q-0.234375 0.5625 -0.28125 1.21875l6.125 0zm6.8763733 -2.765625q-1.109375 0.03125 -1.921875 0.609375q-0.8125 0.578125 -1.15625 1.578125l0 5.1875l-1.078125 0l0 -8.34375l1.015625 0l0 2.0q0.46875 -0.953125 1.25 -1.5q0.78125 -0.546875 1.6875 -0.546875q0.125 0 0.203125 0.015625l0 1.0zm1.4597778 7.375l0 -8.34375l1.078125 0l0 8.34375l-1.078125 0zm0 -10.078125l0 -1.609375l1.078125 0l0 1.609375l-1.078125 0zm7.0817566 10.234375q-0.90625 0 -1.671875 -0.34375q-0.75 -0.34375 -1.3125 -0.9375q-0.5625 -0.609375 -0.875 -1.390625q-0.3125 -0.78125 -0.3125 -1.671875q0 -0.890625 0.3125 -1.65625q0.3125 -0.78125 0.859375 -1.359375q0.5625 -0.59375 1.328125 -0.9375q0.765625 -0.34375 1.65625 -0.34375q0.921875 0 1.671875 0.34375q0.765625 0.34375 1.296875 0.9375q0.546875 0.59375 0.84375 1.359375q0.3125 0.765625 0.3125 1.640625q0 0.125 0 0.25q0 0.125 -0.015625 0.171875l-7.125 0q0.046875 0.671875 0.3125 1.25q0.265625 0.5625 0.671875 0.984375q0.421875 0.40625 0.953125 0.640625q0.53125 0.234375 1.140625 0.234375q0.40625 0 0.796875 -0.109375q0.40625 -0.109375 0.734375 -0.296875q0.34375 -0.203125 0.609375 -0.484375q0.28125 -0.28125 0.421875 -0.609375l0.953125 0.25q-0.203125 0.46875 -0.5625 0.84375q-0.34375 0.375 -0.8125 0.65625q-0.453125 0.28125 -1.015625 0.421875q-0.5625 0.15625 -1.171875 0.15625zm3.078125 -4.765625q-0.046875 -0.671875 -0.3125 -1.21875q-0.265625 -0.5625 -0.671875 -0.953125q-0.40625 -0.40625 -0.953125 -0.625q-0.53125 -0.21875 -1.140625 -0.21875q-0.609375 0 -1.15625 0.21875q-0.53125 0.21875 -0.953125 0.625q-0.40625 0.390625 -0.65625 0.953125q-0.234375 0.5625 -0.28125 1.21875l6.125 0zm5.4857483 4.765625q-0.984375 0 -1.90625 -0.3125q-0.921875 -0.328125 -1.59375 -0.9375l0.484375 -0.734375q0.703125 0.578125 1.4375 0.875q0.734375 0.28125 1.5625 0.28125q1.0 0 1.59375 -0.40625q0.609375 -0.40625 0.609375 -1.15625q0 -0.359375 -0.15625 -0.59375q-0.15625 -0.234375 -0.46875 -0.40625q-0.3125 -0.171875 -0.796875 -0.3125q-0.46875 -0.140625 -1.09375 -0.28125q-0.71875 -0.171875 -1.25 -0.34375q-0.515625 -0.1875 -0.859375 -0.40625q-0.34375 -0.21875 -0.515625 -0.546875q-0.171875 -0.328125 -0.171875 -0.828125q0 -0.625 0.25 -1.09375q0.25 -0.484375 0.671875 -0.796875q0.421875 -0.3125 0.984375 -0.46875q0.578125 -0.171875 1.21875 -0.171875q0.953125 0 1.734375 0.3125q0.796875 0.3125 1.265625 0.828125l-0.515625 0.640625q-0.46875 -0.484375 -1.140625 -0.71875q-0.65625 -0.234375 -1.375 -0.234375q-0.4375 0 -0.8125 0.09375q-0.359375 0.078125 -0.640625 0.265625q-0.28125 0.1875 -0.4375 0.484375q-0.15625 0.296875 -0.15625 0.703125q0 0.328125 0.109375 0.546875q0.109375 0.203125 0.359375 0.359375q0.265625 0.140625 0.65625 0.265625q0.390625 0.125 0.953125 0.25q0.796875 0.1875 1.40625 0.390625q0.609375 0.1875 1.015625 0.453125q0.40625 0.25 0.609375 0.625q0.21875 0.359375 0.21875 0.875q0 1.15625 -0.890625 1.828125q-0.875 0.671875 -2.359375 0.671875z" fill-rule="nonzero"></path><path fill="#000000" fill-opacity="0.0" d="m394.76642 162.47769l112.25195 0l0 32.7874l-112.25195 0z" fill-rule="evenodd"></path><path fill="#000000" d="m432.27145 186.83769l-1.078125 0l0 -4.65625q0 -1.484375 -0.453125 -2.15625q-0.4375 -0.671875 -1.34375 -0.671875q-0.484375 0 -0.96875 0.171875q-0.46875 0.171875 -0.875 0.5q-0.40625 0.3125 -0.734375 0.765625q-0.3125 0.4375 -0.46875 0.9375l0 5.109375l-1.078125 0l0 -8.34375l0.984375 0l0 1.890625q0.515625 -0.90625 1.46875 -1.46875q0.953125 -0.5625 2.078125 -0.5625q0.6875 0 1.15625 0.265625q0.484375 0.25 0.765625 0.71875q0.296875 0.453125 0.421875 1.125q0.125 0.671875 0.125 1.5l0 4.875zm5.8749084 0.15625q-0.90625 0 -1.65625 -0.34375q-0.75 -0.34375 -1.3125 -0.9375q-0.546875 -0.59375 -0.859375 -1.375q-0.296875 -0.78125 -0.296875 -1.640625q0 -0.890625 0.3125 -1.671875q0.3125 -0.78125 0.859375 -1.375q0.5625 -0.59375 1.3125 -0.9375q0.75 -0.359375 1.640625 -0.359375q0.890625 0 1.65625 0.359375q0.765625 0.34375 1.3125 0.9375q0.546875 0.59375 0.859375 1.375q0.3125 0.78125 0.3125 1.671875q0 0.859375 -0.3125 1.640625q-0.296875 0.78125 -0.84375 1.375q-0.546875 0.59375 -1.3125 0.9375q-0.765625 0.34375 -1.671875 0.34375zm-3.015625 -4.28125q0 0.703125 0.234375 1.3125q0.234375 0.59375 0.640625 1.046875q0.421875 0.453125 0.96875 0.71875q0.546875 0.25 1.171875 0.25q0.625 0 1.171875 -0.265625q0.5625 -0.265625 0.96875 -0.71875q0.421875 -0.453125 0.65625 -1.0625q0.25 -0.609375 0.25 -1.3125q0 -0.6875 -0.25 -1.296875q-0.234375 -0.625 -0.65625 -1.078125q-0.40625 -0.453125 -0.96875 -0.71875q-0.546875 -0.265625 -1.171875 -0.265625q-0.625 0 -1.171875 0.265625q-0.53125 0.265625 -0.953125 0.734375q-0.421875 0.453125 -0.65625 1.078125q-0.234375 0.609375 -0.234375 1.3125zm12.98877 3.71875q-0.09375 0.046875 -0.28125 0.140625q-0.1875 0.078125 -0.4375 0.15625q-0.234375 0.078125 -0.546875 0.140625q-0.296875 0.0625 -0.625 0.0625q-0.359375 0 -0.6875 -0.09375q-0.3125 -0.09375 -0.546875 -0.296875q-0.234375 -0.203125 -0.390625 -0.5q-0.140625 -0.3125 -0.140625 -0.703125l0 -5.96875l-1.140625 0l0 -0.875l1.140625 0l0 -2.8125l1.09375 0l0 2.8125l1.921875 0l0 0.875l-1.921875 0l0 5.65625q0.03125 0.46875 0.328125 0.6875q0.296875 0.21875 0.671875 0.21875q0.46875 0 0.8125 -0.15625q0.359375 -0.15625 0.453125 -0.21875l0.296875 0.875zm1.3600159 0.40625l0 -8.34375l1.078125 0l0 8.34375l-1.078125 0zm0 -10.078125l0 -1.609375l1.078125 0l0 1.609375l-1.078125 0zm3.8786316 10.078125l0 -7.46875l-1.140625 0l0 -0.875l1.140625 0l0 -0.21875q0 -1.53125 0.65625 -2.40625q0.65625 -0.875 1.796875 -0.875q0.5 0 0.953125 0.15625q0.46875 0.140625 0.8125 0.375l-0.34375 0.78125q-0.21875 -0.171875 -0.546875 -0.265625q-0.328125 -0.09375 -0.671875 -0.09375q-0.765625 0 -1.171875 0.59375q-0.390625 0.578125 -0.390625 1.703125l0 0.25l2.296875 0l0 0.875l-2.296875 0l0 7.46875l-1.09375 0zm4.889374 0l0 -8.34375l1.078125 0l0 8.34375l-1.078125 0zm0 -10.078125l0 -1.609375l1.078125 0l0 1.609375l-1.078125 0zm7.0817566 10.234375q-0.90625 0 -1.671875 -0.34375q-0.75 -0.34375 -1.3125 -0.9375q-0.5625 -0.609375 -0.875 -1.390625q-0.3125 -0.78125 -0.3125 -1.671875q0 -0.890625 0.3125 -1.65625q0.3125 -0.78125 0.859375 -1.359375q0.5625 -0.59375 1.328125 -0.9375q0.765625 -0.34375 1.65625 -0.34375q0.921875 0 1.671875 0.34375q0.765625 0.34375 1.296875 0.9375q0.546875 0.59375 0.84375 1.359375q0.3125 0.765625 0.3125 1.640625q0 0.125 0 0.25q0 0.125 -0.015625 0.171875l-7.125 0q0.046875 0.671875 0.3125 1.25q0.265625 0.5625 0.671875 0.984375q0.421875 0.40625 0.953125 0.640625q0.53125 0.234375 1.140625 0.234375q0.40625 0 0.796875 -0.109375q0.40625 -0.109375 0.734375 -0.296875q0.34375 -0.203125 0.609375 -0.484375q0.28125 -0.28125 0.421875 -0.609375l0.953125 0.25q-0.203125 0.46875 -0.5625 0.84375q-0.34375 0.375 -0.8125 0.65625q-0.453125 0.28125 -1.015625 0.421875q-0.5625 0.15625 -1.171875 0.15625zm3.078125 -4.765625q-0.046875 -0.671875 -0.3125 -1.21875q-0.265625 -0.5625 -0.671875 -0.953125q-0.40625 -0.40625 -0.953125 -0.625q-0.53125 -0.21875 -1.140625 -0.21875q-0.609375 0 -1.15625 0.21875q-0.53125 0.21875 -0.953125 0.625q-0.40625 0.390625 -0.65625 0.953125q-0.234375 0.5625 -0.28125 1.21875l6.125 0zm5.485779 4.765625q-0.984375 0 -1.90625 -0.3125q-0.921875 -0.328125 -1.59375 -0.9375l0.484375 -0.734375q0.703125 0.578125 1.4375 0.875q0.734375 0.28125 1.5625 0.28125q1.0 0 1.59375 -0.40625q0.609375 -0.40625 0.609375 -1.15625q0 -0.359375 -0.15625 -0.59375q-0.15625 -0.234375 -0.46875 -0.40625q-0.3125 -0.171875 -0.796875 -0.3125q-0.46875 -0.140625 -1.09375 -0.28125q-0.71875 -0.171875 -1.25 -0.34375q-0.515625 -0.1875 -0.859375 -0.40625q-0.34375 -0.21875 -0.515625 -0.546875q-0.171875 -0.328125 -0.171875 -0.828125q0 -0.625 0.25 -1.09375q0.25 -0.484375 0.671875 -0.796875q0.421875 -0.3125 0.984375 -0.46875q0.578125 -0.171875 1.21875 -0.171875q0.953125 0 1.734375 0.3125q0.796875 0.3125 1.265625 0.828125l-0.515625 0.640625q-0.46875 -0.484375 -1.140625 -0.71875q-0.65625 -0.234375 -1.375 -0.234375q-0.4375 0 -0.8125 0.09375q-0.359375 0.078125 -0.640625 0.265625q-0.28125 0.1875 -0.4375 0.484375q-0.15625 0.296875 -0.15625 0.703125q0 0.328125 0.109375 0.546875q0.109375 0.203125 0.359375 0.359375q0.265625 0.140625 0.65625 0.265625q0.390625 0.125 0.953125 0.25q0.796875 0.1875 1.40625 0.390625q0.609375 0.1875 1.015625 0.453125q0.40625 0.25 0.609375 0.625q0.21875 0.359375 0.21875 0.875q0 1.15625 -0.890625 1.828125q-0.875 0.671875 -2.359375 0.671875z" fill-rule="nonzero"></path><path fill="#efefef" d="m243.07462 28.112862l172.69293 0l0 52.314957l-172.69293 0z" fill-rule="evenodd"></path><path stroke="#000000" stroke-width="1.0" stroke-linejoin="round" stroke-linecap="butt" d="m243.07462 28.112862l172.69293 0l0 52.314957l-172.69293 0z" fill-rule="evenodd"></path><path fill="#000000" d="m273.05206 47.94034l1.09375 0l5.515625 13.25l-1.390625 0l-1.71875 -4.140625l-5.9375 0l-1.703125 4.140625l-1.40625 0l5.546875 -13.25zm3.203125 8.078125l-2.65625 -6.546875l-2.71875 6.546875l5.375 0zm4.3772583 0.28125q0 -1.015625 0.34375 -1.9375q0.359375 -0.921875 1.0 -1.59375q0.640625 -0.6875 1.53125 -1.078125q0.90625 -0.390625 1.984375 -0.390625q1.390625 0 2.40625 0.625q1.03125 0.625 1.546875 1.6875l-1.21875 0.390625q-0.421875 -0.734375 -1.15625 -1.15625q-0.734375 -0.421875 -1.625 -0.421875q-0.75 0 -1.40625 0.296875q-0.640625 0.296875 -1.109375 0.8125q-0.46875 0.515625 -0.75 1.21875q-0.265625 0.703125 -0.265625 1.546875q0 0.828125 0.28125 1.5625q0.28125 0.71875 0.765625 1.25q0.484375 0.53125 1.125 0.84375q0.640625 0.296875 1.375 0.296875q0.46875 0 0.921875 -0.125q0.453125 -0.125 0.84375 -0.359375q0.390625 -0.234375 0.671875 -0.53125q0.28125 -0.296875 0.390625 -0.640625l1.25 0.375q-0.203125 0.515625 -0.59375 0.953125q-0.390625 0.4375 -0.921875 0.765625q-0.53125 0.328125 -1.171875 0.5q-0.640625 0.1875 -1.34375 0.1875q-1.0625 0 -1.953125 -0.390625q-0.890625 -0.40625 -1.546875 -1.109375q-0.65625 -0.703125 -1.015625 -1.609375q-0.359375 -0.921875 -0.359375 -1.96875zm15.570404 4.421875q-0.109375 0.0625 -0.328125 0.15625q-0.21875 0.09375 -0.5 0.1875q-0.265625 0.09375 -0.625 0.15625q-0.359375 0.078125 -0.75 0.078125q-0.40625 0 -0.78125 -0.109375q-0.375 -0.109375 -0.65625 -0.34375q-0.28125 -0.234375 -0.453125 -0.578125q-0.15625 -0.359375 -0.15625 -0.828125l0 -6.96875l-1.34375 0l0 -1.0l1.34375 0l0 -3.28125l1.265625 0l0 3.28125l2.234375 0l0 1.0l-2.234375 0l0 6.609375q0.03125 0.546875 0.375 0.796875q0.359375 0.25 0.796875 0.25q0.546875 0 0.953125 -0.171875q0.40625 -0.1875 0.53125 -0.265625l0.328125 1.03125zm1.5935974 0.46875l0 -9.71875l1.265625 0l0 9.71875l-1.265625 0zm0 -11.75l0 -1.875l1.265625 0l0 1.875l-1.265625 0zm8.207672 11.9375q-1.0625 0 -1.953125 -0.390625q-0.875 -0.40625 -1.515625 -1.09375q-0.640625 -0.703125 -1.0 -1.609375q-0.34375 -0.921875 -0.34375 -1.921875q0 -1.03125 0.359375 -1.9375q0.359375 -0.921875 1.0 -1.609375q0.65625 -0.6875 1.53125 -1.09375q0.875 -0.421875 1.921875 -0.421875q1.03125 0 1.921875 0.421875q0.890625 0.40625 1.53125 1.09375q0.640625 0.6875 1.0 1.609375q0.375 0.90625 0.375 1.9375q0 1.0 -0.359375 1.921875q-0.359375 0.90625 -1.0 1.609375q-0.640625 0.6875 -1.53125 1.09375q-0.875 0.390625 -1.9375 0.390625zm-3.53125 -5.0q0 0.8125 0.28125 1.515625q0.28125 0.703125 0.75 1.234375q0.484375 0.53125 1.125 0.828125q0.640625 0.296875 1.375 0.296875q0.71875 0 1.359375 -0.296875q0.65625 -0.3125 1.140625 -0.84375q0.484375 -0.53125 0.75 -1.234375q0.28125 -0.71875 0.28125 -1.53125q0 -0.8125 -0.28125 -1.53125q-0.265625 -0.71875 -0.75 -1.25q-0.484375 -0.53125 -1.140625 -0.828125q-0.640625 -0.3125 -1.359375 -0.3125q-0.734375 0 -1.375 0.3125q-0.625 0.296875 -1.109375 0.84375q-0.484375 0.53125 -0.765625 1.25q-0.28125 0.71875 -0.28125 1.546875zm18.662964 4.8125l-1.28125 0l0 -5.421875q0 -1.734375 -0.515625 -2.515625q-0.5 -0.796875 -1.5625 -0.796875q-0.5625 0 -1.125 0.203125q-0.5625 0.203125 -1.046875 0.578125q-0.46875 0.375 -0.84375 0.890625q-0.375 0.515625 -0.53125 1.109375l0 5.953125l-1.265625 0l0 -9.71875l1.15625 0l0 2.203125q0.59375 -1.0625 1.703125 -1.71875q1.109375 -0.65625 2.40625 -0.65625q0.8125 0 1.359375 0.296875q0.5625 0.296875 0.890625 0.84375q0.34375 0.546875 0.5 1.328125q0.15625 0.78125 0.15625 1.734375l0 5.6875zm6.8370667 -6.71875q0 -1.1875 0.421875 -2.375q0.421875 -1.1875 1.21875 -2.109375q0.8125 -0.9375 1.984375 -1.53125q1.171875 -0.59375 2.671875 -0.59375q1.765625 0 3.015625 0.8125q1.265625 0.796875 1.859375 2.09375l-1.015625 0.625q-0.328125 -0.65625 -0.78125 -1.09375q-0.453125 -0.453125 -0.984375 -0.734375q-0.515625 -0.28125 -1.078125 -0.390625q-0.5625 -0.125 -1.09375 -0.125q-1.203125 0 -2.125 0.484375q-0.90625 0.484375 -1.53125 1.265625q-0.625 0.78125 -0.9375 1.765625q-0.3125 0.96875 -0.3125 1.984375q0 1.09375 0.375 2.109375q0.390625 1.0 1.046875 1.78125q0.65625 0.765625 1.5625 1.234375q0.90625 0.453125 1.96875 0.453125q0.5625 0 1.140625 -0.140625q0.59375 -0.140625 1.140625 -0.4375q0.5625 -0.3125 1.03125 -0.765625q0.46875 -0.46875 0.78125 -1.125l1.078125 0.5625q-0.3125 0.75 -0.890625 1.328125q-0.578125 0.5625 -1.296875 0.953125q-0.703125 0.390625 -1.5 0.59375q-0.78125 0.203125 -1.546875 0.203125q-1.375 0 -2.515625 -0.59375q-1.125 -0.59375 -1.953125 -1.546875q-0.8125 -0.96875 -1.28125 -2.1875q-0.453125 -1.234375 -0.453125 -2.5zm18.266937 -1.875q-1.28125 0.03125 -2.234375 0.703125q-0.953125 0.671875 -1.34375 1.84375l0 6.046875l-1.265625 0l0 -9.71875l1.1875 0l0 2.328125q0.546875 -1.109375 1.453125 -1.75q0.921875 -0.640625 1.953125 -0.640625q0.15625 0 0.25 0.03125l0 1.15625zm5.89209 8.78125q-1.0625 0 -1.953125 -0.390625q-0.875 -0.40625 -1.53125 -1.109375q-0.65625 -0.703125 -1.015625 -1.609375q-0.359375 -0.921875 -0.359375 -1.96875q0 -1.015625 0.359375 -1.921875q0.359375 -0.90625 1.0 -1.578125q0.65625 -0.6875 1.546875 -1.09375q0.890625 -0.40625 1.9375 -0.40625q1.0625 0 1.9375 0.40625q0.890625 0.40625 1.53125 1.09375q0.640625 0.6875 0.984375 1.59375q0.359375 0.890625 0.359375 1.890625q0 0.15625 0 0.3125q0 0.140625 -0.015625 0.1875l-8.328125 0q0.0625 0.78125 0.359375 1.453125q0.3125 0.65625 0.796875 1.140625q0.484375 0.484375 1.109375 0.765625q0.625 0.265625 1.34375 0.265625q0.46875 0 0.921875 -0.125q0.46875 -0.140625 0.859375 -0.359375q0.390625 -0.234375 0.703125 -0.546875q0.328125 -0.328125 0.5 -0.71875l1.09375 0.296875q-0.21875 0.53125 -0.640625 0.96875q-0.40625 0.4375 -0.953125 0.765625q-0.53125 0.328125 -1.1875 0.5q-0.640625 0.1875 -1.359375 0.1875zm3.578125 -5.5625q-0.046875 -0.78125 -0.359375 -1.421875q-0.3125 -0.640625 -0.78125 -1.109375q-0.46875 -0.46875 -1.09375 -0.734375q-0.625 -0.265625 -1.34375 -0.265625q-0.703125 0 -1.34375 0.265625q-0.625 0.265625 -1.109375 0.734375q-0.46875 0.46875 -0.765625 1.125q-0.28125 0.640625 -0.34375 1.40625l7.140625 0zm5.623108 5.5625q-0.6875 0 -1.28125 -0.234375q-0.578125 -0.234375 -1.03125 -0.640625q-0.4375 -0.40625 -0.6875 -0.953125q-0.234375 -0.5625 -0.234375 -1.1875q0 -0.640625 0.296875 -1.171875q0.3125 -0.546875 0.84375 -0.9375q0.546875 -0.390625 1.28125 -0.609375q0.75 -0.21875 1.65625 -0.21875q0.734375 0 1.5 0.140625q0.765625 0.125 1.375 0.359375l0 -0.875q0 -1.28125 -0.734375 -2.03125q-0.734375 -0.765625 -2.015625 -0.765625q-0.75 0 -1.53125 0.296875q-0.78125 0.296875 -1.578125 0.859375l-0.453125 -0.84375q1.890625 -1.265625 3.65625 -1.265625q1.828125 0 2.875 1.03125q1.046875 1.03125 1.046875 2.828125l0 4.390625q0 0.515625 0.46875 0.515625l0 1.125q-0.328125 0.0625 -0.484375 0.0625q-0.484375 0 -0.765625 -0.234375q-0.265625 -0.25 -0.28125 -0.6875l-0.046875 -0.765625q-0.671875 0.875 -1.6875 1.34375q-1.015625 0.46875 -2.1875 0.46875zm0.296875 -0.96875q0.984375 0 1.8125 -0.375q0.84375 -0.375 1.265625 -0.984375q0.171875 -0.171875 0.25 -0.359375q0.09375 -0.203125 0.09375 -0.375l0 -1.578125q-0.640625 -0.25 -1.328125 -0.375q-0.671875 -0.140625 -1.390625 -0.140625q-1.34375 0 -2.1875 0.5625q-0.828125 0.5625 -0.828125 1.484375q0 0.4375 0.171875 0.828125q0.1875 0.390625 0.484375 0.6875q0.3125 0.28125 0.734375 0.453125q0.4375 0.171875 0.921875 0.171875zm12.089539 0.3125q-0.109375 0.0625 -0.328125 0.15625q-0.21875 0.09375 -0.5 0.1875q-0.265625 0.09375 -0.625 0.15625q-0.359375 0.078125 -0.75 0.078125q-0.40625 0 -0.78125 -0.109375q-0.375 -0.109375 -0.65625 -0.34375q-0.28125 -0.234375 -0.453125 -0.578125q-0.15625 -0.359375 -0.15625 -0.828125l0 -6.96875l-1.34375 0l0 -1.0l1.34375 0l0 -3.28125l1.265625 0l0 3.28125l2.234375 0l0 1.0l-2.234375 0l0 6.609375q0.03125 0.546875 0.375 0.796875q0.359375 0.25 0.796875 0.25q0.546875 0 0.953125 -0.171875q0.40625 -0.1875 0.53125 -0.265625l0.328125 1.03125zm5.7342224 0.65625q-1.0625 0 -1.953125 -0.390625q-0.875 -0.40625 -1.515625 -1.09375q-0.640625 -0.703125 -1.0 -1.609375q-0.34375 -0.921875 -0.34375 -1.921875q0 -1.03125 0.359375 -1.9375q0.359375 -0.921875 1.0 -1.609375q0.65625 -0.6875 1.53125 -1.09375q0.875 -0.421875 1.921875 -0.421875q1.03125 0 1.921875 0.421875q0.890625 0.40625 1.53125 1.09375q0.640625 0.6875 1.0 1.609375q0.375 0.90625 0.375 1.9375q0 1.0 -0.359375 1.921875q-0.359375 0.90625 -1.0 1.609375q-0.640625 0.6875 -1.53125 1.09375q-0.875 0.390625 -1.9375 0.390625zm-3.53125 -5.0q0 0.8125 0.28125 1.515625q0.28125 0.703125 0.75 1.234375q0.484375 0.53125 1.125 0.828125q0.640625 0.296875 1.375 0.296875q0.71875 0 1.359375 -0.296875q0.65625 -0.3125 1.140625 -0.84375q0.484375 -0.53125 0.75 -1.234375q0.28125 -0.71875 0.28125 -1.53125q0 -0.8125 -0.28125 -1.53125q-0.265625 -0.71875 -0.75 -1.25q-0.484375 -0.53125 -1.140625 -0.828125q-0.640625 -0.3125 -1.359375 -0.3125q-0.734375 0 -1.375 0.3125q-0.625 0.296875 -1.109375 0.84375q-0.484375 0.53125 -0.765625 1.25q-0.28125 0.71875 -0.28125 1.546875zm15.334839 -3.78125q-1.28125 0.03125 -2.234375 0.703125q-0.953125 0.671875 -1.34375 1.84375l0 6.046875l-1.265625 0l0 -9.71875l1.1875 0l0 2.328125q0.546875 -1.109375 1.453125 -1.75q0.921875 -0.640625 1.953125 -0.640625q0.15625 0 0.25 0.03125l0 1.15625z" fill-rule="nonzero"></path><path fill="#000000" fill-opacity="0.0" d="m573.8504 132.11285l0 -77.82677l-158.07874 0" fill-rule="evenodd"></path><path stroke="#000000" stroke-width="1.0" stroke-linejoin="round" stroke-linecap="butt" d="m573.8504 132.11285l0 -77.82677l-154.65167 0" fill-rule="evenodd"></path><path fill="#000000" stroke="#000000" stroke-width="1.0" stroke-linecap="butt" d="m419.19873 54.28609l1.1246033 -1.1245842l-3.0897827 1.1245842l3.0897827 1.1245804z" fill-rule="evenodd"></path><path fill="#000000" fill-opacity="0.0" d="m243.07874 54.254593l-161.98425 0l0 77.85826" fill-rule="evenodd"></path><path stroke="#000000" stroke-width="1.0" stroke-linejoin="round" stroke-linecap="butt" d="m243.07874 54.254593l-161.98425 0l0 74.43118" fill-rule="evenodd"></path><path fill="#000000" stroke="#000000" stroke-width="1.0" stroke-linecap="butt" d="m81.09449 128.68578l-1.124588 -1.124588l1.124588 3.0897675l1.1245804 -3.0897675z" fill-rule="evenodd"></path><path fill="#000000" fill-opacity="0.0" d="m94.5328 21.5958l142.11023 0l0 32.7874l-142.11023 0z" fill-rule="evenodd"></path><path fill="#000000" d="m115.52482 41.768303q0 -0.890625 0.296875 -1.671875q0.3125 -0.78125 0.859375 -1.359375q0.5625 -0.59375 1.328125 -0.921875q0.765625 -0.34375 1.6875 -0.34375q1.1875 0 2.0625 0.546875q0.890625 0.53125 1.328125 1.4375l-1.046875 0.34375q-0.359375 -0.640625 -1.0 -1.0q-0.625 -0.359375 -1.390625 -0.359375q-0.640625 0 -1.1875 0.25q-0.546875 0.25 -0.96875 0.703125q-0.40625 0.4375 -0.640625 1.046875q-0.21875 0.609375 -0.21875 1.328125q0 0.703125 0.234375 1.328125q0.234375 0.625 0.65625 1.078125q0.421875 0.453125 0.96875 0.71875q0.546875 0.265625 1.171875 0.265625q0.40625 0 0.796875 -0.109375q0.390625 -0.125 0.71875 -0.3125q0.34375 -0.203125 0.578125 -0.453125q0.25 -0.265625 0.34375 -0.546875l1.0625 0.3125q-0.171875 0.453125 -0.515625 0.828125q-0.328125 0.375 -0.78125 0.65625q-0.453125 0.28125 -1.015625 0.421875q-0.546875 0.15625 -1.140625 0.15625q-0.90625 0 -1.671875 -0.34375q-0.765625 -0.34375 -1.328125 -0.9375q-0.5625 -0.609375 -0.875 -1.390625q-0.3125 -0.78125 -0.3125 -1.671875zm11.455887 4.34375q-0.59375 0 -1.09375 -0.1875q-0.5 -0.203125 -0.890625 -0.546875q-0.375 -0.359375 -0.578125 -0.828125q-0.203125 -0.484375 -0.203125 -1.03125q0 -0.53125 0.25 -1.0q0.265625 -0.46875 0.71875 -0.796875q0.46875 -0.34375 1.109375 -0.515625q0.640625 -0.1875 1.40625 -0.1875q0.6406174 0 1.2968674 0.109375q0.65625 0.109375 1.171875 0.3125l0 -0.75q0 -1.109375 -0.625 -1.75q-0.625 -0.640625 -1.7343674 -0.640625q-0.640625 0 -1.3125 0.25q-0.671875 0.25 -1.359375 0.734375l-0.375 -0.71875q1.609375 -1.09375 3.125 -1.09375q1.5781174 0 2.4687424 0.890625q0.890625 0.875 0.890625 2.421875l0 3.765625q0 0.453125 0.40625 0.453125l0 0.953125q-0.265625 0.046875 -0.421875 0.046875q-0.40625 0 -0.640625 -0.203125q-0.234375 -0.21875 -0.25 -0.578125l-0.03125 -0.65625q-0.578125 0.75 -1.453125 1.15625q-0.8749924 0.390625 -1.8749924 0.390625zm0.25 -0.828125q0.8593674 0 1.5624924 -0.3125q0.71875 -0.328125 1.078125 -0.859375q0.15625 -0.140625 0.21875 -0.296875q0.078125 -0.171875 0.078125 -0.328125l0 -1.359375q-0.546875 -0.203125 -1.140625 -0.3125q-0.578125 -0.109375 -1.1874924 -0.109375q-1.140625 0 -1.875 0.484375q-0.71875 0.46875 -0.71875 1.25q0 0.390625 0.15625 0.734375q0.15625 0.328125 0.421875 0.578125q0.265625 0.25 0.625 0.390625q0.375 0.140625 0.78125 0.140625zm6.423134 -11.015625l1.09375 0l0 9.796875q0 0.46875 0.25 0.734375q0.25 0.265625 0.71875 0.265625q0.171875 0 0.40625 -0.046875q0.25 -0.046875 0.453125 -0.140625l0.203125 0.890625q-0.3125 0.125 -0.75 0.203125q-0.4375 0.078125 -0.765625 0.078125q-0.75 0 -1.1875 -0.421875q-0.421875 -0.421875 -0.421875 -1.1875l0 -10.171875zm4.352005 0l1.09375 0l0 9.796875q0 0.46875 0.25 0.734375q0.25 0.265625 0.71875 0.265625q0.171875 0 0.40625 -0.046875q0.25 -0.046875 0.453125 -0.140625l0.203125 0.890625q-0.3125 0.125 -0.75 0.203125q-0.4375 0.078125 -0.765625 0.078125q-0.75 0 -1.1875 -0.421875q-0.421875 -0.421875 -0.421875 -1.1875l0 -10.171875zm7.070755 11.84375q-0.984375 0 -1.90625 -0.3125q-0.921875 -0.328125 -1.59375 -0.9375l0.484375 -0.734375q0.703125 0.578125 1.4375 0.875q0.734375 0.28125 1.5625 0.28125q1.0 0 1.59375 -0.40625q0.609375 -0.40625 0.609375 -1.15625q0 -0.359375 -0.15625 -0.59375q-0.15625 -0.234375 -0.46875 -0.40625q-0.3125 -0.171875 -0.796875 -0.3125q-0.46875 -0.140625 -1.09375 -0.28125q-0.71875 -0.171875 -1.25 -0.34375q-0.515625 -0.1875 -0.859375 -0.40625q-0.34375 -0.21875 -0.515625 -0.546875q-0.171875 -0.328125 -0.171875 -0.828125q0 -0.625 0.25 -1.09375q0.25 -0.484375 0.671875 -0.796875q0.421875 -0.3125 0.984375 -0.46875q0.578125 -0.171875 1.21875 -0.171875q0.953125 0 1.734375 0.3125q0.796875 0.3125 1.265625 0.828125l-0.515625 0.640625q-0.46875 -0.484375 -1.140625 -0.71875q-0.65625 -0.234375 -1.375 -0.234375q-0.4375 0 -0.8125 0.09375q-0.359375 0.078125 -0.640625 0.265625q-0.28125 0.1875 -0.4375 0.484375q-0.15625 0.296875 -0.15625 0.703125q0 0.328125 0.109375 0.546875q0.109375 0.203125 0.359375 0.359375q0.265625 0.140625 0.65625 0.265625q0.390625 0.125 0.953125 0.25q0.796875 0.1875 1.40625 0.390625q0.609375 0.1875 1.015625 0.453125q0.40625 0.25 0.609375 0.625q0.21875 0.359375 0.21875 0.875q0 1.15625 -0.890625 1.828125q-0.875 0.671875 -2.359375 0.671875zm12.528275 0q-0.859375 0 -1.609375 -0.359375q-0.734375 -0.359375 -1.265625 -0.953125q-0.515625 -0.59375 -0.8125 -1.359375q-0.296875 -0.78125 -0.296875 -1.625q0 -0.890625 0.28125 -1.671875q0.296875 -0.796875 0.796875 -1.390625q0.5 -0.59375 1.1875 -0.9375q0.703125 -0.34375 1.546875 -0.34375q1.046875 0 1.8593903 0.5625q0.828125 0.546875 1.28125 1.328125l0 -5.09375l1.09375 0l0 10.28125q0 0.453125 0.390625 0.453125l0 0.953125q-0.25 0.046875 -0.390625 0.046875q-0.390625 0 -0.671875 -0.25q-0.28125 -0.25 -0.28125 -0.59375l0 -0.8125q-0.5 0.8125 -1.359375 1.296875q-0.84376526 0.46875 -1.7500153 0.46875zm0.234375 -0.953125q0.40625 0 0.85939026 -0.15625q0.453125 -0.171875 0.84375 -0.453125q0.40625 -0.28125 0.6875 -0.65625q0.28125 -0.375 0.34375 -0.796875l0 -2.578125q-0.15625 -0.4375 -0.46875 -0.8125q-0.296875 -0.375 -0.6875 -0.65625q-0.390625 -0.296875 -0.84375 -0.453125q-0.43751526 -0.15625 -0.87501526 -0.15625q-0.671875 0 -1.21875 0.296875q-0.546875 0.28125 -0.9375 0.75q-0.390625 0.46875 -0.59375 1.078125q-0.203125 0.609375 -0.203125 1.25q0 0.671875 0.234375 1.28125q0.234375 0.609375 0.65625 1.0625q0.421875 0.453125 0.984375 0.734375q0.5625 0.265625 1.21875 0.265625zm6.2957916 0.796875l0 -8.34375l1.078125 0l0 8.34375l-1.078125 0zm0 -10.078125l0 -1.609375l1.078125 0l0 1.609375l-1.078125 0zm6.2536316 10.234375q-0.984375 0 -1.90625 -0.3125q-0.921875 -0.328125 -1.59375 -0.9375l0.484375 -0.734375q0.703125 0.578125 1.4375 0.875q0.734375 0.28125 1.5625 0.28125q1.0 0 1.59375 -0.40625q0.609375 -0.40625 0.609375 -1.15625q0 -0.359375 -0.15625 -0.59375q-0.15625 -0.234375 -0.46875 -0.40625q-0.3125 -0.171875 -0.796875 -0.3125q-0.46875 -0.140625 -1.09375 -0.28125q-0.71875 -0.171875 -1.25 -0.34375q-0.515625 -0.1875 -0.859375 -0.40625q-0.34375 -0.21875 -0.515625 -0.546875q-0.171875 -0.328125 -0.171875 -0.828125q0 -0.625 0.25 -1.09375q0.25 -0.484375 0.671875 -0.796875q0.421875 -0.3125 0.984375 -0.46875q0.578125 -0.171875 1.21875 -0.171875q0.953125 0 1.734375 0.3125q0.796875 0.3125 1.265625 0.828125l-0.515625 0.640625q-0.46875 -0.484375 -1.140625 -0.71875q-0.65625 -0.234375 -1.375 -0.234375q-0.4375 0 -0.8125 0.09375q-0.359375 0.078125 -0.640625 0.265625q-0.28125 0.1875 -0.4375 0.484375q-0.15625 0.296875 -0.15625 0.703125q0 0.328125 0.109375 0.546875q0.109375 0.203125 0.359375 0.359375q0.265625 0.140625 0.65625 0.265625q0.390625 0.125 0.953125 0.25q0.796875 0.1875 1.40625 0.390625q0.609375 0.1875 1.015625 0.453125q0.40625 0.25 0.609375 0.625q0.21875 0.359375 0.21875 0.875q0 1.15625 -0.890625 1.828125q-0.875 0.671875 -2.359375 0.671875zm9.276398 0q-1.046875 0 -1.859375 -0.53125q-0.8125 -0.53125 -1.3125 -1.359375l0 5.140625l-1.078125 0l0 -11.75l0.96875 0l0 1.625q0.515625 -0.78125 1.328125 -1.265625q0.8125 -0.5 1.78125 -0.5q0.859375 0 1.578125 0.359375q0.71875 0.359375 1.25 0.96875q0.53125 0.59375 0.828125 1.390625q0.296875 0.78125 0.296875 1.609375q0 0.875 -0.28125 1.65625q-0.265625 0.78125 -0.765625 1.375q-0.5 0.59375 -1.203125 0.9375q-0.703125 0.34375 -1.53125 0.34375zm-0.296875 -0.953125q0.671875 0 1.21875 -0.28125q0.546875 -0.296875 0.9375 -0.765625q0.40625 -0.46875 0.609375 -1.0625q0.203125 -0.609375 0.203125 -1.25q0 -0.671875 -0.25 -1.28125q-0.234375 -0.609375 -0.65625 -1.0625q-0.40625 -0.46875 -0.96875 -0.734375q-0.5625 -0.28125 -1.21875 -0.28125q-0.421875 0 -0.875 0.171875q-0.453125 0.15625 -0.859375 0.4375q-0.390625 0.28125 -0.671875 0.65625q-0.265625 0.375 -0.34375 0.796875l0 2.5625q0.203125 0.4375 0.5 0.828125q0.296875 0.375 0.671875 0.65625q0.375 0.28125 0.796875 0.453125q0.4375 0.15625 0.90625 0.15625zm8.01265 0.953125q-0.59375 0 -1.09375 -0.1875q-0.5 -0.203125 -0.890625 -0.546875q-0.375 -0.359375 -0.578125 -0.828125q-0.203125 -0.484375 -0.203125 -1.03125q0 -0.53125 0.25 -1.0q0.265625 -0.46875 0.71875 -0.796875q0.46875 -0.34375 1.109375 -0.515625q0.640625 -0.1875 1.40625 -0.1875q0.640625 0 1.296875 0.109375q0.65625 0.109375 1.171875 0.3125l0 -0.75q0 -1.109375 -0.625 -1.75q-0.625 -0.640625 -1.734375 -0.640625q-0.640625 0 -1.3125 0.25q-0.671875 0.25 -1.359375 0.734375l-0.375 -0.71875q1.609375 -1.09375 3.125 -1.09375q1.578125 0 2.46875 0.890625q0.890625 0.875 0.890625 2.421875l0 3.765625q0 0.453125 0.40625 0.453125l0 0.953125q-0.265625 0.046875 -0.421875 0.046875q-0.40625 0 -0.640625 -0.203125q-0.234375 -0.21875 -0.25 -0.578125l-0.03125 -0.65625q-0.578125 0.75 -1.453125 1.15625q-0.875 0.390625 -1.875 0.390625zm0.25 -0.828125q0.859375 0 1.5625 -0.3125q0.71875 -0.328125 1.078125 -0.859375q0.15625 -0.140625 0.21875 -0.296875q0.078125 -0.171875 0.078125 -0.328125l0 -1.359375q-0.546875 -0.203125 -1.140625 -0.3125q-0.578125 -0.109375 -1.1875 -0.109375q-1.140625 0 -1.875 0.484375q-0.71875 0.46875 -0.71875 1.25q0 0.390625 0.15625 0.734375q0.15625 0.328125 0.421875 0.578125q0.265625 0.25 0.625 0.390625q0.375 0.140625 0.78125 0.140625zm10.3762665 0.265625q-0.09375 0.046875 -0.28125 0.140625q-0.1875 0.078125 -0.4375 0.15625q-0.234375 0.078125 -0.546875 0.140625q-0.296875 0.0625 -0.625 0.0625q-0.359375 0 -0.6875 -0.09375q-0.3125 -0.09375 -0.546875 -0.296875q-0.234375 -0.203125 -0.390625 -0.5q-0.140625 -0.3125 -0.140625 -0.703125l0 -5.96875l-1.140625 0l0 -0.875l1.140625 0l0 -2.8125l1.09375 0l0 2.8125l1.921875 0l0 0.875l-1.921875 0l0 5.65625q0.03125 0.46875 0.328125 0.6875q0.296875 0.21875 0.671875 0.21875q0.46875 0 0.8125 -0.15625q0.359375 -0.15625 0.453125 -0.21875l0.296875 0.875zm0.78189087 -3.78125q0 -0.890625 0.296875 -1.671875q0.3125 -0.78125 0.859375 -1.359375q0.5625 -0.59375 1.328125 -0.921875q0.765625 -0.34375 1.6875 -0.34375q1.1875 0 2.0625 0.546875q0.890625 0.53125 1.328125 1.4375l-1.046875 0.34375q-0.359375 -0.640625 -1.0 -1.0q-0.625 -0.359375 -1.390625 -0.359375q-0.640625 0 -1.1875 0.25q-0.546875 0.25 -0.96875 0.703125q-0.40625 0.4375 -0.640625 1.046875q-0.21875 0.609375 -0.21875 1.328125q0 0.703125 0.234375 1.328125q0.234375 0.625 0.65625 1.078125q0.421875 0.453125 0.96875 0.71875q0.546875 0.265625 1.171875 0.265625q0.40625 0 0.796875 -0.109375q0.390625 -0.125 0.71875 -0.3125q0.34375 -0.203125 0.578125 -0.453125q0.25 -0.265625 0.34375 -0.546875l1.0625 0.3125q-0.171875 0.453125 -0.515625 0.828125q-0.328125 0.375 -0.78125 0.65625q-0.453125 0.28125 -1.015625 0.421875q-0.546875 0.15625 -1.140625 0.15625q-0.90625 0 -1.671875 -0.34375q-0.765625 -0.34375 -1.328125 -0.9375q-0.5625 -0.609375 -0.875 -1.390625q-0.3125 -0.78125 -0.3125 -1.671875zm16.362137 4.1875l-1.078125 0l0 -4.65625q0 -1.421875 -0.5 -2.125q-0.484375 -0.703125 -1.421875 -0.703125q-0.46875 0 -0.921875 0.1875q-0.453125 0.171875 -0.859375 0.5q-0.390625 0.3125 -0.6875 0.75q-0.296875 0.4375 -0.453125 0.9375l0 5.109375l-1.078125 0l0 -11.6875l1.078125 0l0 5.234375q0.5 -0.9375 1.375 -1.484375q0.890625 -0.546875 1.90625 -0.546875q0.71875 0 1.21875 0.265625q0.5 0.265625 0.8125 0.734375q0.328125 0.46875 0.46875 1.140625q0.140625 0.65625 0.140625 1.46875l0 4.875z" fill-rule="nonzero"></path><path fill="#000000" fill-opacity="0.0" d="m422.5328 21.5958l142.11026 0l0 32.7874l-142.11026 0z" fill-rule="evenodd"></path><path fill="#000000" d="m473.48874 46.112053q-0.90625 0 -1.671875 -0.34375q-0.75 -0.34375 -1.3125 -0.9375q-0.5625 -0.609375 -0.875 -1.390625q-0.3125 -0.78125 -0.3125 -1.671875q0 -0.890625 0.3125 -1.65625q0.3125 -0.78125 0.859375 -1.359375q0.5625 -0.59375 1.328125 -0.9375q0.765625 -0.34375 1.65625 -0.34375q0.921875 0 1.671875 0.34375q0.765625 0.34375 1.296875 0.9375q0.546875 0.59375 0.84375 1.359375q0.3125 0.765625 0.3125 1.640625q0 0.125 0 0.25q0 0.125 -0.015625 0.171875l-7.125 0q0.046875 0.671875 0.3125 1.25q0.265625 0.5625 0.671875 0.984375q0.421875 0.40625 0.953125 0.640625q0.53125 0.234375 1.140625 0.234375q0.40625 0 0.796875 -0.109375q0.40625 -0.109375 0.734375 -0.296875q0.34375 -0.203125 0.609375 -0.484375q0.28125 -0.28125 0.421875 -0.609375l0.953125 0.25q-0.203125 0.46875 -0.5625 0.84375q-0.34375 0.375 -0.8125 0.65625q-0.453125 0.28125 -1.015625 0.421875q-0.5625 0.15625 -1.171875 0.15625zm3.078125 -4.765625q-0.046875 -0.671875 -0.3125 -1.21875q-0.265625 -0.5625 -0.671875 -0.953125q-0.40625 -0.40625 -0.953125 -0.625q-0.53125 -0.21875 -1.140625 -0.21875q-0.609375 0 -1.15625 0.21875q-0.53125 0.21875 -0.953125 0.625q-0.40625 0.390625 -0.65625 0.953125q-0.234375 0.5625 -0.28125 1.21875l6.125 0zm5.220154 4.609375l-3.40625 -8.34375l1.125 0l2.859375 7.328125l2.890625 -7.328125l1.046875 0l-3.390625 8.34375l-1.125 0zm9.621765 0.15625q-0.90625 0 -1.671875 -0.34375q-0.75 -0.34375 -1.3125 -0.9375q-0.5625 -0.609375 -0.875 -1.390625q-0.3125 -0.78125 -0.3125 -1.671875q0 -0.890625 0.3125 -1.65625q0.3125 -0.78125 0.859375 -1.359375q0.5625 -0.59375 1.328125 -0.9375q0.765625 -0.34375 1.65625 -0.34375q0.921875 0 1.671875 0.34375q0.765625 0.34375 1.296875 0.9375q0.546875 0.59375 0.84375 1.359375q0.3125 0.765625 0.3125 1.640625q0 0.125 0 0.25q0 0.125 -0.015625 0.171875l-7.125 0q0.046875 0.671875 0.3125 1.25q0.265625 0.5625 0.671875 0.984375q0.421875 0.40625 0.953125 0.640625q0.53125 0.234375 1.140625 0.234375q0.40625 0 0.796875 -0.109375q0.40625 -0.109375 0.734375 -0.296875q0.34375 -0.203125 0.609375 -0.484375q0.28125 -0.28125 0.421875 -0.609375l0.953125 0.25q-0.203125 0.46875 -0.5625 0.84375q-0.34375 0.375 -0.8125 0.65625q-0.453125 0.28125 -1.015625 0.421875q-0.5625 0.15625 -1.171875 0.15625zm3.078125 -4.765625q-0.046875 -0.671875 -0.3125 -1.21875q-0.265625 -0.5625 -0.671875 -0.953125q-0.40625 -0.40625 -0.953125 -0.625q-0.53125 -0.21875 -1.140625 -0.21875q-0.609375 0 -1.15625 0.21875q-0.53125 0.21875 -0.953125 0.625q-0.40625 0.390625 -0.65625 0.953125q-0.234375 0.5625 -0.28125 1.21875l6.125 0zm9.720123 4.609375l-1.078125 0l0 -4.65625q0 -1.484375 -0.453125 -2.15625q-0.4375 -0.671875 -1.34375 -0.671875q-0.484375 0 -0.96875 0.171875q-0.46875 0.171875 -0.875 0.5q-0.40625 0.3125 -0.734375 0.765625q-0.3125 0.4375 -0.46875 0.9375l0 5.109375l-1.078125 0l0 -8.34375l0.984375 0l0 1.890625q0.515625 -0.90625 1.46875 -1.46875q0.953125 -0.5625 2.078125 -0.5625q0.6875 0 1.15625 0.265625q0.484375 0.25 0.765625 0.71875q0.296875 0.453125 0.421875 1.125q0.125 0.671875 0.125 1.5l0 4.875zm6.3280334 -0.40625q-0.09375 0.046875 -0.28125 0.140625q-0.1875 0.078125 -0.4375 0.15625q-0.234375 0.078125 -0.546875 0.140625q-0.296875 0.0625 -0.625 0.0625q-0.359375 0 -0.6875 -0.09375q-0.3125 -0.09375 -0.546875 -0.296875q-0.234375 -0.203125 -0.390625 -0.5q-0.140625 -0.3125 -0.140625 -0.703125l0 -5.96875l-1.140625 0l0 -0.875l1.140625 0l0 -2.8125l1.09375 0l0 2.8125l1.921875 0l0 0.875l-1.921875 0l0 5.65625q0.03125 0.46875 0.328125 0.6875q0.296875 0.21875 0.671875 0.21875q0.46875 0 0.8125 -0.15625q0.359375 -0.15625 0.453125 -0.21875l0.296875 0.875zm4.125641 0.5625q-0.984375 0 -1.90625 -0.3125q-0.921875 -0.328125 -1.59375 -0.9375l0.484375 -0.734375q0.703125 0.578125 1.4375 0.875q0.734375 0.28125 1.5625 0.28125q1.0 0 1.59375 -0.40625q0.609375 -0.40625 0.609375 -1.15625q0 -0.359375 -0.15625 -0.59375q-0.15625 -0.234375 -0.46875 -0.40625q-0.3125 -0.171875 -0.796875 -0.3125q-0.46875 -0.140625 -1.09375 -0.28125q-0.71875 -0.171875 -1.25 -0.34375q-0.515625 -0.1875 -0.859375 -0.40625q-0.34375 -0.21875 -0.515625 -0.546875q-0.171875 -0.328125 -0.171875 -0.828125q0 -0.625 0.25 -1.09375q0.25 -0.484375 0.671875 -0.796875q0.421875 -0.3125 0.984375 -0.46875q0.578125 -0.171875 1.21875 -0.171875q0.953125 0 1.734375 0.3125q0.796875 0.3125 1.265625 0.828125l-0.515625 0.640625q-0.46875 -0.484375 -1.140625 -0.71875q-0.65625 -0.234375 -1.375 -0.234375q-0.4375 0 -0.8125 0.09375q-0.359375 0.078125 -0.640625 0.265625q-0.28125 0.1875 -0.4375 0.484375q-0.15625 0.296875 -0.15625 0.703125q0 0.328125 0.109375 0.546875q0.109375 0.203125 0.359375 0.359375q0.265625 0.140625 0.65625 0.265625q0.390625 0.125 0.953125 0.25q0.796875 0.1875 1.40625 0.390625q0.609375 0.1875 1.015625 0.453125q0.40625 0.25 0.609375 0.625q0.21875 0.359375 0.21875 0.875q0 1.15625 -0.890625 1.828125q-0.875 0.671875 -2.359375 0.671875z" fill-rule="nonzero"></path></g></svg>

